# Blender 5.1.2
# www.blender.org
mtllib Magv2.mtl
o Mag
v 9.060349 -74.407608 43.764709
v 9.065797 -72.737854 48.761505
v 6.926307 -74.407791 43.767090
v 6.931754 -72.738037 48.763916
v 6.327373 -72.929474 48.191925
v 6.323173 -74.216507 44.340393
v 9.023519 -86.106613 9.951262
v 9.031711 -83.597916 17.458771
v 6.889476 -86.106796 9.953643
v 6.286344 -85.915497 10.526977
v 6.293281 -83.789505 16.889219
v 6.897662 -83.598099 17.461151
v -11.303981 -74.409393 43.787506
v -9.169930 -74.409210 43.785095
v -11.298533 -72.739639 48.784332
v -8.565549 -74.217804 44.357056
v -8.561350 -72.930771 48.208588
v -9.164483 -72.739456 48.781921
v -11.340810 -86.108398 9.974059
v -9.206760 -86.108215 9.971679
v -11.332625 -83.599701 17.481565
v -8.602378 -85.916794 10.543670
v -8.595442 -83.790802 16.905884
v -9.198575 -83.599518 17.479187
v -6.598118 63.646313 -25.103954
v -6.597543 58.102592 -25.024303
v -9.170250 62.703445 -25.087536
v -12.209702 58.102100 -25.018017
v -11.257220 60.773293 -25.057446
v -6.486110 58.061733 -26.368969
v -6.485145 48.761669 -26.235363
v -11.250785 60.855980 -19.301922
v -10.563638 60.149185 -18.685589
v -9.163134 62.794853 -18.725140
v -9.161700 62.813286 -17.442120
v -6.590286 63.746933 -18.100018
v -6.596757 62.445160 -23.982616
v -8.586955 61.568985 -23.957958
v -6.600663 58.118591 -23.910625
v -9.275873 60.789455 -23.945995
v -9.275596 58.118366 -23.907635
v -10.562203 60.167618 -17.402538
v -11.247966 60.892181 -16.782055
v -9.146685 63.006172 -4.015972
v -9.145193 63.025352 -2.680950
v -6.573808 63.958626 -3.364880
v 4.176632 58.103535 -25.036358
v 4.063153 48.762596 -26.247173
v 4.062188 58.062660 -26.380779
v -11.234292 61.067863 -4.553478
v -10.576360 60.360508 -3.976391
v -10.574866 60.379684 -2.641369
v -11.231473 61.104065 -2.033581
v -11.224668 61.191486 4.052142
v -12.183955 58.432869 -1.994183
v 4.177418 62.446106 -23.994671
v 4.182245 58.119534 -23.922680
v 6.167821 61.570278 -23.974499
v 6.856893 60.790871 -23.964062
v 6.857170 58.119781 -23.925701
v 4.176057 63.647255 -25.116009
v 6.748386 62.704842 -25.105358
v 9.788793 58.104027 -25.042645
v 8.835757 60.775051 -25.079967
v -12.158632 -84.535263 9.432586
v -12.168762 -69.471207 1.566404
v -12.161084 -85.310730 7.183318
v 6.755501 62.796249 -18.742962
v 4.183889 63.747879 -18.112072
v 6.756936 62.814682 -17.459942
v 8.842195 60.857735 -19.324444
v 8.156554 60.150826 -18.706554
v 8.845012 60.893936 -16.804577
v 8.157989 60.169258 -17.423504
v 6.771951 63.007568 -4.033794
v 4.200367 63.959572 -3.376934
v 6.773442 63.026749 -2.698772
v 9.842605 -65.957214 13.312223
v 9.850142 -81.279236 18.846586
v 9.848012 -81.953491 16.890928
v -12.149026 58.881641 29.241810
v -9.218223 58.855438 27.397419
v -12.151084 58.855183 27.400715
v 8.858687 61.069622 -4.576000
v 8.202172 60.362152 -3.997417
v -12.145915 28.884846 29.672750
v 8.861505 61.105824 -2.056103
v 8.203666 60.381329 -2.662395
v 8.868310 61.193245 4.029620
v 9.814540 58.434799 -2.018810
v 9.849469 58.883568 29.217182
v 9.847411 58.857109 27.376087
v 6.914542 58.856853 27.379353
v 9.852580 28.886776 29.648123
v -12.121787 -72.873230 43.258759
v -12.131173 -59.066299 35.954556
v -12.123879 -73.535034 41.339111
v 9.878051 -56.143478 45.743099
v 9.885224 -70.175735 51.052673
v 9.882125 -71.154205 48.214630
v -11.224946 -85.934250 5.373473
v -1.163811 -85.933365 5.362212
v -11.223623 -85.516022 6.586608
v -8.603110 -84.332977 10.014403
v -9.207488 -84.529831 9.444243
v 8.897326 -85.932495 5.350951
v 8.898648 -85.514267 6.564086
v 6.285612 -84.331680 9.997710
v 6.888747 -84.528412 9.426238
v -1.170429 -88.027969 -0.713287
v -6.545475 -88.028442 -0.707245
v -12.169673 -88.028961 -0.700958
v -12.163680 -86.132156 4.800719
v 4.204623 -88.027512 -0.719299
v 9.828822 -88.027023 -0.725586
v 9.834815 -86.130219 4.776092
v -1.112451 -69.677948 52.511684
v -8.562081 -71.347427 47.679535
v -1.130261 -75.314896 36.161438
v -8.566263 -72.671082 43.840210
v -9.170642 -72.867935 43.270050
v -11.187200 -73.987549 40.025330
v -11.191396 -75.315781 36.172699
v -11.209661 -81.096054 19.406830
v -9.199337 -81.949753 16.927916
v -1.148525 -81.095169 19.395569
v -8.596201 -82.146484 16.356415
v 8.912612 -81.094299 19.384308
v 6.896899 -81.948334 16.909880
v 6.292521 -82.145187 16.339750
v 6.326641 -71.346130 47.662842
v 6.322459 -72.669785 43.823517
v 6.925594 -72.866516 43.252045
v 8.935079 -73.985794 40.002808
v 8.930882 -75.314026 36.150177
v 9.839862 -84.533325 9.407958
v 9.829734 -69.469269 1.541777
v 9.837411 -85.308792 7.158690
v 9.867322 -59.064362 35.929928
v 9.876700 -72.871292 43.234131
v 9.874616 -73.533096 41.314484
v -12.120444 -56.145416 45.767727
v -12.116363 -71.156128 48.239227
v -12.113271 -70.177673 51.077301
v -12.155890 -65.959152 13.336851
v -12.150483 -81.955429 16.915558
v -12.148353 -81.281174 18.871216
v 6.931021 -71.149261 48.232971
v -9.165216 -71.150681 48.251007
v -6.579427 10.370155 -23.331459
v -12.203624 10.369667 -23.325172
v -12.206597 28.156380 -24.587807
v -6.594437 28.156868 -24.594093
v -6.858440 28.061462 -25.937538
v -6.849145 10.244759 -24.672127
v -6.575808 -6.255890 -21.401192
v -12.200006 -6.256378 -21.394905
v -12.200155 28.202850 -18.831768
v -12.197252 10.936729 -17.588936
v -6.845514 -6.439072 -22.735207
v -6.571411 -22.840973 -18.771580
v -12.195609 -22.841461 -18.765263
v -12.193683 -5.467735 -15.684639
v -11.258471 10.993614 -16.985573
v -11.261371 28.229097 -18.226269
v -12.203267 58.184784 -19.262493
v -6.334903 48.703907 -27.579845
v -6.495003 27.966103 -27.281746
v -6.492019 10.119423 -26.013496
v -6.488376 -6.622192 -24.069954
v -6.841100 -23.084961 -20.095707
v -6.566093 -39.312271 -15.310612
v -12.190289 -39.312775 -15.304295
v -12.189334 -21.833847 -13.081947
v -11.254909 -5.384956 -15.084328
v -11.257052 11.113716 -15.707741
v -11.259940 28.284426 -16.943707
v -11.264455 57.968960 -18.653515
v -1.212496 48.704353 -27.585583
v -1.210996 48.762131 -26.241253
v -1.203718 -6.621735 -24.075874
v -1.207361 10.119881 -26.019417
v -6.483946 -23.328918 -21.420536
v -6.835764 -39.616043 -16.622471
v -6.560016 -55.692703 -11.165226
v -12.184215 -55.693207 -11.158939
v -12.184075 -38.086075 -9.657108
v -11.250567 -21.723465 -12.485998
v -11.253499 -5.210121 -13.812782
v -12.197347 28.311510 -16.312939
v -12.194463 11.172607 -15.079262
v -11.263021 57.987392 -17.370434
v -6.580188 62.529926 -18.082531
v -1.210627 58.079315 -25.183056
v -1.211960 58.062195 -26.374859
v 3.909919 48.704803 -27.591320
v -1.210345 27.966560 -27.287666
v 4.077305 10.120346 -26.025337
v 4.080948 -6.621269 -24.081795
v -1.199288 -23.328461 -21.426456
v -6.829668 -56.048782 -12.463902
v -6.553235 -71.905426 -6.376741
v -12.177432 -71.905930 -6.370455
v -12.178100 -54.251434 -5.583561
v -11.245318 -37.949203 -9.066746
v -11.249175 -21.490250 -11.223791
v -12.190917 -5.124374 -13.187447
v -12.183663 28.413286 -4.083292
v -12.180924 12.375362 -2.891548
v -12.200448 58.220985 -16.742626
v -1.209213 58.119061 -23.916668
v 4.074321 27.967026 -27.293587
v 4.440750 28.062454 -25.950203
v 4.085378 -23.328003 -21.432377
v 4.437410 10.245750 -24.684761
v 4.441041 -6.438080 -22.747841
v -1.193932 -39.919327 -17.940952
v -6.478591 -39.919800 -17.935032
v -6.472476 -56.404785 -13.763279
v -6.822861 -72.319702 -7.657869
v -12.171375 -70.251678 -0.830721
v -11.239348 -54.090714 -4.999210
v -11.243942 -37.660019 -7.816319
v -12.186599 -21.375839 -10.602972
v -12.177482 -3.449467 -1.055122
v -11.242188 12.429218 -2.327431
v -11.244924 28.438494 -3.517038
v -12.186775 58.396667 -4.514050
v -6.563710 62.741623 -3.347393
v -8.570390 61.653606 -18.067730
v -6.598407 36.356937 -23.597973
v -1.206956 36.357407 -23.604015
v 4.179738 28.157814 -24.606148
v 4.090733 -39.918869 -17.946873
v 4.445454 -23.083969 -20.108341
v 4.170672 10.371101 -23.343513
v 4.174290 -6.254944 -21.413246
v -1.187817 -56.404312 -13.769199
v -6.465645 -72.733902 -8.939699
v -6.815828 -86.935974 -2.518982
v -11.232638 -70.063614 -0.254519
v -11.237992 -53.751114 -3.761478
v -12.181376 -37.518127 -7.201298
v -12.173268 -19.235580 1.472071
v -11.238750 -3.371769 -0.493782
v -11.240710 12.555691 -0.997963
v -11.243434 28.497606 -2.182596
v -11.248008 58.180283 -3.944317
v -6.571242 63.991585 -1.070477
v -9.142609 63.058548 -0.370342
v -6.581087 62.774582 -1.052959
v -8.553912 61.865303 -3.332592
v -9.259307 60.874077 -18.055767
v -9.273339 36.356701 -23.594982
v 4.184501 36.357880 -23.610058
v 4.096849 -56.403854 -13.775120
v 4.450791 -39.615051 -16.635105
v 9.794871 10.371597 -23.349800
v 9.798490 -6.254448 -21.419533
v 4.178688 -22.840027 -18.783604
v -1.180986 -72.733429 -8.945620
v -1.172554 -86.935471 -2.525299
v -11.231305 -69.666229 0.966063
v -12.175435 -53.584457 -3.152714
v -12.168174 -34.909622 4.796199
v -11.234546 -19.131683 2.029230
v -11.237285 -3.189198 0.829155
v -12.180854 28.524858 -1.564524
v -12.178136 12.614086 -0.382240
v -11.246514 58.199459 -2.609295
v -8.559798 61.917885 0.327625
v -9.242829 61.085770 -3.320629
v -9.259030 58.202995 -18.017376
v -9.256773 36.441322 -17.704754
v 6.859427 36.358116 -23.613049
v 9.791899 28.158310 -24.612434
v 4.103679 -72.732971 -8.951540
v 4.456887 -56.047791 -12.476536
v 4.184005 -39.311340 -15.322636
v 9.802886 -22.839523 -18.789890
v 9.801242 10.938660 -17.613564
v 9.804812 -5.465805 -15.709267
v -1.174678 -85.842987 -4.337250
v -6.459336 -85.843460 -4.331360
v 4.470727 -86.934982 -2.531616
v -12.162444 -50.520081 8.692776
v -11.229457 -34.781860 5.348323
v -11.233096 -18.887497 3.342310
v -12.174716 -3.104855 1.441887
v -12.164866 28.693645 12.729788
v -12.162311 14.013302 13.862754
v -9.245721 61.176819 3.017017
v -9.242553 58.414692 -3.282238
v -9.240295 36.653015 -2.969614
v 6.853786 58.204407 -18.035412
v 6.856043 36.442734 -17.722790
v 9.795228 58.186714 -19.287121
v 9.798339 28.204781 -18.856396
v 4.109988 -85.842529 -4.343170
v 4.463693 -72.318710 -7.670504
v 4.190082 -55.691772 -11.177280
v 9.808206 -39.310837 -15.328922
v 9.809161 -21.831924 -13.106575
v 8.863801 10.995377 -17.008095
v 8.867364 -5.383194 -15.106850
v 4.196863 -71.904495 -6.388796
v -11.223735 -50.369415 9.239162
v -11.228026 -34.481598 6.649501
v -12.170533 -18.774689 3.950464
v -12.159013 -1.148067 15.621574
v -11.225266 28.711765 14.062429
v -11.222726 14.143719 15.190757
v -12.167972 58.638222 12.299609
v -11.215482 61.309525 12.267689
v -9.235379 61.309696 12.265461
v -9.245444 58.505741 3.055378
v -9.243187 36.744064 3.368032
v 6.870263 58.416100 -3.300274
v 6.872521 36.654427 -2.987650
v 6.853509 60.875488 -18.073803
v 4.174045 62.530869 -18.094585
v 6.164435 61.654900 -18.084209
v 8.860902 28.230860 -18.248791
v 8.857823 57.970726 -18.676037
v 9.814281 -55.691269 -11.183567
v 9.814419 -38.084137 -9.681736
v 8.871705 -21.721695 -12.508520
v 8.868773 -5.208359 -13.835335
v 8.865220 11.115479 -15.730263
v 9.821063 -71.903992 -6.395082
v -11.217195 -65.780746 13.874907
v -11.222325 -50.015228 10.526913
v -12.165473 -34.342850 7.252192
v -12.154960 -16.263229 18.059504
v -11.219440 -0.965412 16.943443
v -11.228278 57.759094 13.645100
v -11.208022 61.405354 18.938099
v -9.227919 61.405525 18.935871
v -9.235102 58.638599 12.303822
v -12.160508 58.734108 18.973347
v -9.232845 36.876934 12.616475
v 6.887321 58.507153 3.037312
v 6.889579 36.745476 3.349965
v 6.869987 61.087185 -3.338665
v 4.190522 62.742561 -3.359447
v 6.180913 61.866592 -3.349072
v 8.862332 28.286188 -16.966228
v 8.859258 57.989159 -17.392956
v 9.820395 -54.249496 -5.608189
v 8.876954 -37.947449 -9.089298
v 8.873097 -21.488495 -11.246313
v 9.804032 11.174538 -15.103889
v 9.807578 -5.122444 -13.212074
v 9.827119 -70.249741 -0.855349
v 8.889634 -70.061859 -0.277040
v 8.890967 -69.664474 0.943541
v -11.215812 -65.361359 15.143003
v -12.159781 -49.851593 11.123348
v -12.150054 -31.276581 21.266567
v -11.215398 -16.028305 19.374598
v -11.215003 -0.412632 20.949059
v -11.218255 14.538013 19.214928
v -11.220750 28.769787 18.100668
v -11.223763 57.817116 17.683338
v -11.200046 59.826748 25.940601
v -9.219943 59.826920 25.938374
v -9.227643 58.734428 18.974232
v -9.225385 36.972763 19.286886
v 6.897664 58.640015 12.285754
v 6.899920 36.878349 12.598410
v 6.887044 61.178234 2.998951
v 4.213030 62.775528 -1.065044
v 6.194977 61.919178 0.311085
v 9.801148 28.313440 -16.337566
v 9.798047 58.222916 -16.767254
v 8.882924 -54.088959 -5.021732
v 8.878329 -37.658264 -7.838840
v 9.811896 -21.373901 -10.627600
v 9.817571 12.377293 -2.916176
v 9.821013 -3.447536 -1.079750
v 8.884280 -53.749359 -3.784000
v -11.208285 -80.660843 20.669218
v -12.153280 -65.167526 15.730405
v -12.144603 -46.249496 24.963619
v -11.210505 -30.989670 22.572689
v -11.210999 -15.316483 23.359491
v -12.154841 14.672207 20.586752
v -12.151601 -0.224483 22.314568
v -12.157321 28.787426 19.477194
v -9.215966 37.093773 27.710072
v 6.905124 58.735844 18.956165
v 6.907380 36.974178 19.268820
v 6.897386 61.311111 12.247395
v 4.202933 63.992531 -1.082531
v 9.814832 28.415216 -4.107920
v 9.811721 58.398594 -4.538677
v 9.817119 -37.516190 -7.225925
v 9.825228 -19.233658 1.447443
v 8.880084 12.430981 -2.349953
v 8.883523 -3.370007 -0.516304
v 9.823060 -53.582520 -3.177341
v 8.905078 -65.778992 13.852384
v 8.913987 -80.659088 20.646696
v 8.906460 -65.359604 15.120481
v -12.145757 -80.459686 21.253998
v -12.138259 -61.029709 29.472500
v -11.205077 -45.912369 26.253628
v -12.147609 -15.074707 24.718071
v -11.206151 -30.120102 26.530085
v -12.140399 1.169353 32.428764
v -12.143552 15.666874 30.747765
v -7.957628 58.876049 28.822346
v -7.955371 37.114376 29.134968
v 6.916800 37.095188 27.692005
v 6.904845 61.406940 18.917805
v 8.877498 61.311283 12.245167
v 6.776027 63.059944 -0.388165
v 8.877349 28.440256 -3.539560
v 8.874272 58.182045 -3.966839
v 9.830321 -34.907684 4.771571
v 8.887728 -19.129929 2.006708
v 8.884988 -3.187435 0.806633
v 8.881562 12.557453 -1.020515
v 9.836051 -50.518143 8.668148
v 8.898538 -50.367661 9.216640
v 9.845214 -65.165588 15.705778
v 9.852738 -80.457748 21.229368
v 8.899947 -50.013474 10.504391
v -12.130891 -75.754654 34.901123
v -11.198750 -60.641830 30.752804
v -12.142777 -29.824509 27.879452
v -11.200791 -44.890503 30.162563
v -12.136497 -13.291794 34.783867
v -10.609136 1.380619 33.942436
v -10.612275 15.817142 32.268517
v -10.617729 58.903740 30.769489
v -1.150246 58.876637 28.814716
v -1.147989 37.114971 29.127369
v 5.657144 58.877243 28.807117
v 5.659400 37.115570 29.119740
v 6.912824 59.828335 25.920307
v 8.884957 61.407112 18.915577
v 9.830523 58.640148 12.274982
v 8.875766 58.201225 -2.631817
v 8.878839 28.499369 -2.205118
v 8.892816 -34.780106 5.325801
v 8.889176 -18.885727 3.319788
v 9.820359 12.616016 -0.406868
v 9.823779 -3.102924 1.417259
v 9.838714 -49.849655 11.098721
v 9.860236 -61.027786 29.447872
v 9.867604 -75.752716 34.876495
v 8.894246 -34.479843 6.626979
v -12.137439 -44.543381 31.495266
v -11.194510 -59.464966 34.631466
v -10.614623 28.958027 31.199697
v -10.605252 -13.007355 36.285606
v -12.131774 -27.641464 37.877861
v -1.142618 15.817974 32.257927
v -1.139479 1.381443 33.931816
v -1.148072 58.904568 30.758869
v 8.321593 58.905399 30.748280
v 8.892924 59.828506 25.918110
v 9.837987 58.736034 18.948719
v 9.833629 28.695576 12.705160
v 9.817641 28.526781 -1.589151
v 9.827962 -18.772766 3.925837
v 9.836185 14.015232 13.838127
v 9.839482 -1.146137 15.596947
v 9.833022 -34.340912 7.227565
v 9.853892 -46.247559 24.938992
v 8.923530 -60.640076 30.730282
v -1.144966 28.958858 31.189077
v -10.600549 -27.299210 39.367119
v -1.135595 -13.006531 36.274986
v -12.126609 -41.983841 41.368954
v 8.330186 1.382282 33.921227
v 8.327046 15.818806 32.247307
v 8.324698 28.959690 31.178488
v 8.898517 57.818882 17.660816
v 8.894000 57.760860 13.622578
v 8.897014 28.713535 14.039877
v 9.843535 -16.261292 18.034876
v 8.899554 14.145481 15.168235
v 8.902841 -0.963650 16.920921
v 9.848441 -31.274658 21.241938
v 8.917201 -45.910614 26.231106
v -10.595407 -41.575562 42.842159
v -1.130892 -27.298370 39.356529
v 8.334069 -13.005692 36.264397
v 9.858096 1.171284 32.404137
v 9.854943 15.668804 30.723137
v 9.841174 28.789356 19.452566
v 8.901528 28.771549 18.078115
v 8.906880 -16.026550 19.352076
v 8.904023 14.539768 19.192404
v 8.907275 -0.410870 20.926537
v 8.911773 -30.987915 22.550167
v 8.921487 -44.888748 30.140041
v 8.927767 -59.463211 34.608913
v -10.589280 -55.647308 47.213039
v -1.125751 -41.574722 42.831539
v 8.338774 -27.297546 39.345909
v 9.861999 -13.289856 34.759239
v 9.843654 14.674137 20.562126
v 9.846894 -0.222553 22.289940
v 8.911281 -15.314728 23.336937
v 8.916127 -30.118332 26.507563
v 9.861056 -44.541458 31.470638
v -10.582107 -69.678787 52.522274
v -1.119624 -55.646469 47.202450
v 8.343915 -41.573898 42.820950
v 9.866721 -27.639542 37.853233
v 9.850886 -15.072784 24.693445
v 9.855718 -29.822586 27.854824
v 8.350041 -55.645645 47.191830
v 9.871886 -41.981903 41.344326
v 8.357215 -69.677124 52.501064
v -1.147149 -80.659958 20.657957
vn 0.0004 -0.9484 0.3169
vn 0.0005 -0.9484 0.3169
vn 0.0004 -0.9484 0.3170
vn 0.0004 -0.9485 0.3169
vn -0.0011 -0.0144 -0.9999
vn -0.9991 0.0019 -0.0423
vn -0.9966 -0.0013 -0.0825
vn -0.9993 0.0084 -0.0356
vn -0.8257 0.5589 0.0767
vn -0.8430 0.3619 0.3979
vn -0.5342 0.8454 -0.0027
vn -0.5144 0.8574 -0.0166
vn -0.3442 0.9388 -0.0131
vn 0.0051 0.0166 0.9998
vn 0.0032 0.0156 0.9999
vn 0.0016 0.0146 0.9999
vn 0.0011 0.0144 0.9999
vn -0.8456 0.3509 -0.4023
vn -0.8249 0.5632 -0.0482
vn -0.5153 0.8570 -0.0073
vn -0.6104 0.7917 -0.0259
vn 0.9990 0.0021 -0.0446
vn 0.9992 0.0086 -0.0379
vn 0.9964 -0.0011 -0.0848
vn -0.8252 0.5639 0.0326
vn -0.8459 0.3632 0.3906
vn -0.8502 0.3529 -0.3906
vn -0.8090 0.5722 -0.1345
vn -0.9303 0.3667 -0.0042
vn -0.9983 0.0112 -0.0570
vn -0.0028 0.0166 0.9999
vn 0.0007 0.0146 0.9999
vn -0.0010 0.0156 0.9999
vn -1.0000 -0.0001 0.0011
vn -0.9950 -0.0315 -0.0949
vn -0.8904 -0.1527 -0.4289
vn 0.5340 0.8455 -0.0039
vn 0.3440 0.9389 -0.0139
vn 0.5141 0.8575 -0.0177
vn 0.8258 0.5589 0.0749
vn 0.8438 0.3621 0.3960
vn 0.8246 0.5635 -0.0500
vn 0.8446 0.3511 -0.4042
vn 0.5151 0.8571 -0.0085
vn 0.6102 0.7918 -0.0273
vn 0.9953 0.0309 0.0921
vn 0.8615 0.1729 0.4775
vn 1.0000 0.0001 -0.0011
vn -0.0001 0.9999 -0.0144
vn 0.8252 0.5640 0.0309
vn 0.8467 0.3634 0.3886
vn -0.9907 0.0047 0.1359
vn -0.9999 0.0115 0.0021
vn 0.8086 0.5723 -0.1365
vn 0.8493 0.3531 -0.3925
vn 0.9302 0.3669 -0.0063
vn 0.9982 0.0113 -0.0592
vn 0.9910 0.0048 0.1339
vn 0.9999 0.0117 -0.0001
vn -0.9941 -0.0353 -0.1025
vn -0.9331 -0.1257 -0.3370
vn 0.9859 0.0549 0.1579
vn 0.8903 0.1616 0.4258
vn 0.0004 -0.9454 0.3259
vn 0.0005 -0.9454 0.3259
vn 0.0005 -0.9454 0.3260
vn 0.0004 -0.9454 0.3260
vn 0.9948 -0.0312 -0.0972
vn 0.8894 -0.1524 -0.4310
vn 0.9939 -0.0351 -0.1047
vn 0.9323 -0.1256 -0.3391
vn -0.9856 0.0547 0.1600
vn -0.8893 0.1615 0.4278
vn -0.9951 0.0308 0.0943
vn -0.8604 0.1726 0.4795
vn 0.0047 0.3199 0.9474
vn 0.0041 0.3207 0.9472
vn 0.0038 0.3214 0.9469
vn 0.0042 0.3207 0.9472
vn 0.8963 -0.4201 0.1417
vn 0.8964 -0.4201 0.1416
vn 0.8963 -0.4202 0.1417
vn 0.8963 -0.4201 0.1416
vn -0.0040 -0.3208 -0.9472
vn -0.0040 -0.3207 -0.9472
vn -0.0041 -0.3206 -0.9472
vn -0.7064 0.2241 0.6714
vn -0.7064 0.2240 0.6714
vn -0.7078 -0.2242 -0.6699
vn 0.0047 0.3200 0.9474
vn 0.0042 0.3208 0.9471
vn 0.0040 0.3212 0.9470
vn 0.0044 0.3206 0.9472
vn 0.9017 -0.4097 0.1381
vn 0.9016 -0.4098 0.1381
vn 0.9017 -0.4098 0.1381
vn -0.0043 -0.3206 -0.9472
vn -0.0041 -0.3207 -0.9472
vn -0.0042 -0.3206 -0.9472
vn -0.7064 0.2241 0.6715
vn -0.7064 0.2240 0.6715
vn -0.7079 -0.2242 -0.6699
vn -0.0021 0.3207 0.9472
vn -0.0021 0.3208 0.9472
vn -0.0021 0.3206 0.9472
vn -0.8959 -0.4203 0.1437
vn -0.8960 -0.4203 0.1437
vn -0.8959 -0.4204 0.1437
vn 0.0020 -0.3207 -0.9472
vn 0.0021 -0.3207 -0.9472
vn 0.0016 -0.3214 -0.9470
vn 0.7064 -0.2240 -0.6714
vn 0.7078 0.2242 0.6699
vn 0.7079 0.2242 0.6698
vn -0.0022 0.3207 0.9472
vn -0.0023 0.3207 0.9472
vn -0.0022 0.3208 0.9472
vn -0.9013 -0.4099 0.1401
vn 0.1908 -0.3127 -0.9305
vn 0.0020 -0.3208 -0.9472
vn 0.0021 -0.3208 -0.9471
vn 0.1914 -0.3140 -0.9299
vn -0.0011 -0.0931 -0.9957
vn -0.0011 -0.0355 -0.9994
vn -0.9807 0.0177 0.1949
vn -0.9951 0.0100 0.0980
vn -0.9984 0.0037 -0.0562
vn -0.9993 -0.0037 -0.0367
vn -0.0011 -0.1360 -0.9907
vn -0.9896 0.0050 0.1437
vn -0.9897 0.0132 0.1426
vn -0.9994 -0.0051 -0.0351
vn -0.9805 0.0265 0.1946
vn -0.0011 -0.1812 -0.9835
vn -0.9896 0.0193 0.1425
vn -0.8924 0.0419 0.4493
vn -0.8914 0.0159 0.4530
vn -0.9910 0.0308 0.1304
vn -0.9996 0.0295 0.0007
vn -0.2426 -0.0108 -0.9701
vn -0.2335 -0.0385 -0.9716
vn -0.2301 -0.0901 -0.9690
vn -0.2302 -0.1323 -0.9641
vn -0.9994 -0.0068 -0.0353
vn -0.9805 0.0353 0.1932
vn -0.0011 -0.2255 -0.9742
vn -0.9897 0.0258 0.1408
vn -0.8925 0.0612 0.4470
vn -0.9012 -0.0405 -0.4315
vn -0.9016 -0.0154 -0.4323
vn -0.8788 0.0272 0.4764
vn -0.8310 0.5563 -0.0071
vn -0.5165 0.8562 -0.0117
vn 1.0000 -0.0004 0.0009
vn 1.0000 0.0021 -0.0010
vn 1.0000 0.0022 -0.0008
vn 1.0000 -0.0003 0.0005
vn -0.0001 0.9991 -0.0429
vn -0.2297 -0.1764 -0.9571
vn -0.9805 0.0440 0.1914
vn -0.9994 -0.0083 -0.0342
vn -0.0011 -0.2643 -0.9644
vn -0.9896 0.0321 0.1402
vn -0.8920 0.0819 0.4446
vn -0.9011 -0.0593 -0.4296
vn -0.9973 -0.0027 -0.0738
vn -0.9972 -0.0072 -0.0746
vn -0.8828 0.0137 -0.4695
vn 1.0000 0.0070 -0.0015
vn 1.0000 0.0083 -0.0021
vn 0.0018 0.9997 -0.0228
vn 0.0018 0.9997 -0.0231
vn -0.0001 0.9997 -0.0240
vn -0.0001 0.9997 -0.0228
vn -0.0011 -0.0407 -0.9992
vn 0.2280 -0.0900 -0.9695
vn 0.2281 -0.1324 -0.9646
vn -0.9994 -0.0097 -0.0337
vn -0.9805 0.0515 0.1895
vn -0.0010 -0.3076 -0.9515
vn -0.9896 0.0377 0.1387
vn -0.8926 0.1013 0.4392
vn -0.9016 -0.0789 -0.4254
vn -0.9972 -0.0104 -0.0734
vn -0.9974 0.0024 0.0717
vn -0.9975 0.0065 0.0709
vn -0.9976 0.0281 -0.0632
vn 0.0018 0.9997 -0.0235
vn -0.0001 0.9997 -0.0234
vn 0.2404 -0.0108 -0.9706
vn 0.2313 -0.0389 -0.9721
vn 0.9983 0.0039 -0.0585
vn 0.2276 -0.1763 -0.9577
vn 0.9992 -0.0036 -0.0389
vn 0.9993 -0.0049 -0.0376
vn -0.2303 -0.2195 -0.9480
vn -0.2304 -0.2573 -0.9385
vn -0.9805 0.0600 0.1870
vn -0.9995 -0.0096 -0.0291
vn -0.0010 -0.3317 -0.9434
vn -0.9897 0.0438 0.1359
vn -0.8925 0.1191 0.4350
vn -0.9009 -0.0981 -0.4228
vn -0.9972 -0.0138 -0.0730
vn -0.9974 0.0095 0.0710
vn -0.8936 0.0423 0.4468
vn -0.8923 0.0158 0.4511
vn -0.9975 0.0299 0.0646
vn 1.0000 0.0071 -0.0004
vn 1.0000 0.0073 -0.0003
vn 0.4030 -0.9151 0.0124
vn 0.4030 -0.9151 0.0120
vn -0.0021 0.9997 -0.0231
vn -0.0020 0.9997 -0.0235
vn -0.0020 0.9997 -0.0228
vn 0.9953 0.0102 0.0958
vn 0.2282 -0.2195 -0.9486
vn 0.9993 -0.0066 -0.0375
vn 0.9812 0.0177 0.1921
vn 0.9810 0.0266 0.1924
vn -0.0011 -0.2644 -0.9644
vn -0.2351 -0.2967 -0.9256
vn -0.9947 0.0338 0.0975
vn -0.9805 0.0647 0.1853
vn -0.9892 0.0486 0.1385
vn -0.8920 0.1396 0.4299
vn -0.9011 -0.1151 -0.4181
vn -0.9973 -0.0171 -0.0720
vn -0.9975 0.0128 0.0702
vn -0.8935 0.0612 0.4448
vn -0.9045 -0.0405 -0.4245
vn -0.9052 -0.0151 -0.4248
vn -0.8796 0.0263 0.4750
vn -0.6152 0.7883 -0.0106
vn 1.0000 0.0001 0.0033
vn 1.0000 0.0001 0.0032
vn 0.4037 -0.9148 0.0130
vn 0.4041 -0.9146 0.0147
vn 0.7494 -0.6621 0.0080
vn 0.7494 -0.6621 0.0074
vn 0.2283 -0.2573 -0.9390
vn 0.9993 -0.0081 -0.0364
vn 0.9809 0.0355 0.1910
vn -0.0010 -0.3052 -0.9523
vn -0.0005 -0.8564 -0.5163
vn -0.8962 0.1479 0.4182
vn -0.9016 -0.1344 -0.4112
vn -0.9973 -0.0201 -0.0713
vn -0.9974 0.0158 0.0700
vn -0.8931 0.0820 0.4423
vn -0.9046 -0.0585 -0.4222
vn -0.9980 -0.0024 -0.0638
vn -0.9979 -0.0063 -0.0644
vn -0.8867 0.0131 -0.4622
vn 0.2772 0.3396 0.8988
vn 0.2772 0.3395 0.8988
vn 0.3689 0.6059 0.7049
vn 0.3952 0.6964 0.5990
vn 0.4045 -0.9144 0.0146
vn 0.4047 -0.9143 0.0144
vn 0.7500 -0.6613 0.0088
vn 0.7504 -0.6609 0.0097
vn 1.0000 0.0001 -0.0028
vn 1.0000 0.0001 -0.0020
vn -1.0000 -0.0005 0.0029
vn -1.0000 0.0009 0.0012
vn -1.0000 0.0021 0.0013
vn 0.2330 -0.2990 -0.9254
vn 0.9993 -0.0096 -0.0363
vn 0.9809 0.0441 0.1892
vn 0.9900 0.0133 0.1404
vn 0.9899 0.0194 0.1403
vn -0.0010 -0.3316 -0.9434
vn -0.3528 -0.3104 -0.8827
vn -0.8974 -0.1480 -0.4156
vn -0.9974 0.0186 0.0690
vn -0.8940 0.1005 0.4367
vn -0.9050 -0.0780 -0.4181
vn -0.9979 -0.0090 -0.0634
vn -0.9982 0.0019 0.0591
vn -0.9983 0.0055 0.0584
vn 0.0432 0.9985 0.0342
vn 0.1744 0.9680 0.1806
vn 0.7510 -0.6603 0.0100
vn 0.7510 -0.6602 0.0099
vn 1.0000 0.0001 -0.0003
vn 1.0000 0.0001 0.0002
vn -1.0000 -0.0001 0.0003
vn -1.0000 -0.0001 -0.0006
vn 0.9913 0.0309 0.1283
vn 0.9899 0.0051 0.1414
vn 0.9996 0.0299 -0.0015
vn 0.3509 -0.3104 -0.8835
vn 0.9995 -0.0095 -0.0314
vn 0.9809 0.0517 0.1873
vn 0.9900 0.0287 0.1382
vn 0.8934 0.0420 0.4473
vn 0.8934 0.0614 0.4450
vn 0.9809 0.0602 0.1848
vn 0.9809 0.0649 0.1831
vn 0.9949 0.0340 0.0953
vn -0.8932 0.1189 0.4336
vn -0.9041 -0.0964 -0.4162
vn -0.9979 -0.0120 -0.0630
vn -0.9982 0.0079 0.0587
vn -0.9839 0.0063 0.1786
vn -0.9841 0.0170 0.1769
vn -0.9988 0.0293 0.0379
vn -0.9419 0.3358 -0.0038
vn 1.0000 0.0001 -0.0007
vn -1.0000 -0.0001 0.0019
vn -1.0000 -0.0001 0.0026
vn -0.4028 -0.9152 0.0133
vn -0.4028 -0.9152 0.0129
vn -1.0000 0.0068 0.0007
vn -1.0000 0.0071 0.0006
vn 0.8308 0.5565 -0.0089
vn 0.5164 0.8562 -0.0129
vn 0.8924 0.0161 0.4510
vn 0.8799 0.0273 0.4744
vn 0.9899 0.0323 0.1379
vn 0.8930 0.0820 0.4426
vn 0.9001 -0.0591 -0.4316
vn 0.9002 -0.0403 -0.4335
vn -0.8930 0.1411 0.4274
vn -0.9048 -0.1132 -0.4104
vn -0.9980 -0.0147 -0.0621
vn -0.9983 0.0106 0.0581
vn -0.9841 0.0242 0.1759
vn -0.9781 -0.0397 0.2043
vn -0.0000 0.9942 0.1077
vn -0.0000 0.9942 0.1078
vn -0.9981 0.0321 -0.0521
vn -0.9184 0.3954 0.0169
vn -1.0000 -0.0001 0.0014
vn -0.7492 -0.6623 0.0097
vn -0.7492 -0.6623 0.0091
vn -0.4035 -0.9149 0.0139
vn -0.4034 -0.9149 0.0148
vn 0.9006 -0.0152 -0.4343
vn 0.8817 0.0139 -0.4715
vn 0.9899 0.0379 0.1365
vn 0.8936 0.1014 0.4372
vn 0.9006 -0.0788 -0.4274
vn 0.9970 -0.0070 -0.0769
vn 0.9971 -0.0102 -0.0757
vn 0.9894 0.0521 0.1352
vn 0.9900 0.0437 0.1338
vn 0.8929 0.1398 0.4279
vn 0.8971 0.1482 0.4162
vn 0.8965 -0.1477 -0.4177
vn 0.9007 -0.1343 -0.4132
vn -0.8981 0.1491 0.4138
vn -0.9052 -0.1339 -0.4034
vn -0.9979 -0.0174 -0.0618
vn -0.9982 0.0130 0.0580
vn -0.9841 0.0324 0.1748
vn -0.9862 -0.0231 -0.1642
vn -0.9861 -0.0163 -0.1653
vn -0.9857 -0.0061 -0.1684
vn -0.9785 -0.0454 -0.2011
vn 0.0003 0.9474 0.3201
vn 0.0003 0.9535 0.3014
vn -0.8771 0.4780 0.0461
vn -0.7499 -0.6614 0.0106
vn -0.7504 -0.6609 0.0114
vn -0.4043 -0.9145 0.0155
vn -0.4045 -0.9144 0.0154
vn -1.0000 0.0070 0.0016
vn -1.0000 0.0072 0.0015
vn 0.9971 -0.0026 -0.0760
vn 0.9975 0.0283 -0.0654
vn 0.8935 0.1192 0.4330
vn 0.8999 -0.0979 -0.4249
vn 0.9971 -0.0137 -0.0753
vn 0.9976 0.0067 0.0686
vn 0.9976 0.0097 0.0688
vn 0.9001 -0.1150 -0.4202
vn -0.9002 -0.1487 -0.4093
vn -0.9979 -0.0207 -0.0609
vn -0.9983 0.0153 0.0568
vn -0.9843 0.0392 0.1720
vn -0.9862 -0.0308 -0.1624
vn -0.9965 -0.0083 -0.0834
vn -0.9965 -0.0117 -0.0823
vn -0.9962 -0.0034 -0.0867
vn 0.0006 0.8324 0.5542
vn -0.7505 -0.6608 0.0118
vn -0.7510 -0.6602 0.0116
vn -1.0000 -0.0001 0.0055
vn -1.0000 -0.0000 0.0054
vn 0.9976 0.0026 0.0695
vn 0.9976 0.0301 0.0624
vn 0.9971 -0.0172 -0.0741
vn 0.9976 0.0169 0.0672
vn 0.8946 0.0425 0.4448
vn 0.8945 0.0613 0.4428
vn 0.9971 -0.0198 -0.0737
vn 0.8939 0.1411 0.4254
vn 0.8990 0.1496 0.4116
vn 0.8993 -0.1481 -0.4114
vn 0.9043 -0.1338 -0.4055
vn -0.9981 -0.0214 -0.0578
vn -0.9983 0.0183 0.0558
vn -0.9840 0.0470 0.1718
vn -0.9965 -0.0157 -0.0819
vn -0.9860 -0.0377 -0.1625
vn -0.9920 0.0171 0.1252
vn -0.9920 0.0124 0.1255
vn 0.7490 -0.0094 -0.6625
vn -0.0433 0.9985 0.0342
vn -0.1743 0.9679 0.1811
vn -0.3674 0.6058 0.7057
vn -0.3940 0.6964 0.5999
vn -0.2752 0.3395 0.8994
vn -0.2752 0.3394 0.8995
vn 0.6151 0.7884 -0.0120
vn 0.8934 0.0160 0.4490
vn 0.8806 0.0265 0.4731
vn 0.9976 0.0160 0.0678
vn 0.8941 0.0821 0.4403
vn 0.9036 -0.0583 -0.4243
vn 0.9036 -0.0403 -0.4265
vn 0.9976 0.0187 0.0668
vn 0.8942 0.1190 0.4316
vn 0.9978 -0.0204 -0.0632
vn 0.9980 -0.0212 -0.0600
vn 0.9040 -0.1130 -0.4124
vn -0.9981 0.0208 0.0579
vn -0.9840 0.0565 0.1688
vn -0.9966 -0.0188 -0.0803
vn -0.9863 -0.0443 -0.1590
vn -0.9920 0.0231 0.1239
vn -0.1389 0.1367 0.9808
vn -0.1385 0.0981 0.9855
vn -0.7505 -0.0096 -0.6608
vn 0.9989 0.0295 0.0357
vn 0.9419 0.3360 -0.0059
vn 0.8856 0.0133 -0.4642
vn 0.9042 -0.0149 -0.4268
vn 0.8949 0.1006 0.4347
vn 0.9041 -0.0779 -0.4202
vn 0.9978 -0.0062 -0.0666
vn 0.9978 -0.0093 -0.0656
vn 0.9978 -0.0172 -0.0640
vn 0.9984 0.0185 0.0535
vn 0.9982 0.0210 0.0558
vn 0.9032 -0.0962 -0.4183
vn -0.9854 0.0586 0.1599
vn -0.9965 -0.0226 -0.0805
vn -0.9864 -0.0532 -0.1558
vn -0.1393 0.0344 0.9896
vn -0.1389 0.1840 0.9731
vn -0.9918 0.0283 0.1243
vn 0.0011 0.0981 0.9952
vn 0.0011 0.1380 0.9904
vn -0.1374 0.0145 0.9904
vn -0.7063 0.0101 0.7078
vn 0.0005 0.8324 0.5542
vn 0.0003 0.9473 0.3202
vn 0.0002 0.9535 0.3014
vn 0.9980 0.0323 -0.0543
vn 0.9183 0.3956 0.0148
vn 0.9984 0.0021 0.0568
vn 0.9978 -0.0023 -0.0660
vn 0.9978 -0.0121 -0.0653
vn 0.9984 0.0056 0.0563
vn 0.9984 0.0080 0.0564
vn 0.9978 -0.0145 -0.0644
vn 0.9984 0.0154 0.0546
vn 0.9844 0.0567 0.1666
vn 0.9857 0.0588 0.1577
vn -0.9851 -0.0604 -0.1611
vn 0.0011 0.0348 0.9994
vn -0.1382 0.2215 0.9653
vn 0.0011 0.1858 0.9826
vn -0.9921 0.0330 0.1209
vn 0.1410 0.1367 0.9805
vn 0.1407 0.0972 0.9853
vn 0.1415 0.0344 0.9893
vn 0.7079 0.0102 0.7063
vn 0.1397 0.0142 0.9901
vn 0.8772 0.4781 0.0440
vn 0.9781 -0.0453 -0.2033
vn 0.9786 -0.0395 0.2021
vn 0.9843 0.0065 0.1764
vn 0.9984 0.0130 0.0554
vn 0.9845 0.0172 0.1747
vn 0.9845 0.0244 0.1737
vn 0.9984 0.0132 0.0558
vn 0.9844 0.0472 0.1696
vn -0.1393 0.2641 0.9544
vn 0.0011 0.2237 0.9747
vn 0.1411 0.1840 0.9727
vn 0.9923 0.0174 0.1229
vn 0.9923 0.0124 0.1233
vn 0.9960 -0.0031 -0.0888
vn 0.9853 -0.0060 -0.1706
vn 0.9844 0.0336 0.1724
vn 0.9858 -0.0161 -0.1674
vn 0.9858 -0.0229 -0.1664
vn 0.9847 0.0395 0.1698
vn 0.9859 -0.0441 -0.1612
vn 0.9860 -0.0530 -0.1580
vn 0.9848 -0.0601 -0.1632
vn -0.1393 0.3225 0.9363
vn 0.0011 0.2667 0.9638
vn 0.1405 0.2216 0.9650
vn 0.9923 0.0233 0.1218
vn 0.9963 -0.0080 -0.0855
vn 0.9963 -0.0115 -0.0847
vn 0.9859 -0.0306 -0.1646
vn 0.9856 -0.0375 -0.1647
vn 0.9963 -0.0225 -0.0828
vn -0.1359 0.3506 0.9266
vn 0.0010 0.3254 0.9456
vn 0.1414 0.2642 0.9540
vn 0.9921 0.0284 0.1221
vn 0.9963 -0.0155 -0.0842
vn 0.9964 -0.0187 -0.0827
vn 0.0010 0.3539 0.9353
vn 0.1412 0.3225 0.9360
vn 0.9924 0.0333 0.1187
vn 0.1379 0.3505 0.9264
vt 0.221202 0.498097
vt 0.215467 0.498097
vt 0.221202 0.500426
vt 0.215467 0.500415
vt 0.216116 0.501067
vt 0.220541 0.501089
vt 0.233947 0.498127
vt 0.225330 0.498127
vt 0.233945 0.500454
vt 0.233287 0.501108
vt 0.225984 0.501108
vt 0.225328 0.500447
vt 0.215466 0.498097
vt 0.220540 0.501089
vt 0.215466 0.500415
vt 0.206587 0.339577
vt 0.205573 0.342403
vt 0.208794 0.337535
vt 0.211521 0.342403
vt 0.211516 0.336537
vt 0.317968 0.499248
vt 0.319484 0.499248
vt 0.319481 0.489118
vt 0.295141 0.340273
vt 0.294011 0.340679
vt 0.294136 0.337337
vt 0.292485 0.337353
vt 0.293286 0.334314
vt 0.303551 0.345638
vt 0.305718 0.344685
vt 0.303558 0.340928
vt 0.306469 0.343836
vt 0.306469 0.340928
vt 0.292661 0.340700
vt 0.291508 0.340322
vt 0.277572 0.337449
vt 0.275885 0.337426
vt 0.276953 0.334314
vt 0.332555 0.499248
vt 0.331041 0.489118
vt 0.331038 0.499248
vt 0.278259 0.340427
vt 0.277126 0.340821
vt 0.275690 0.340787
vt 0.274560 0.340344
vt 0.267835 0.339909
vt 0.274206 0.343295
vt 0.081961 0.609526
vt 0.081961 0.604816
vt 0.079796 0.608572
vt 0.079047 0.607723
vt 0.079047 0.604816
vt 0.288781 0.497409
vt 0.291430 0.479793
vt 0.291430 0.497409
vt 0.294137 0.337337
vt 0.291509 0.340322
vt 0.277573 0.337449
vt 0.278096 0.479793
vt 0.278096 0.497409
vt 0.280167 0.497409
vt 0.182695 0.436752
vt 0.179858 0.438926
vt 0.182958 0.438683
vt 0.239573 0.375881
vt 0.239573 0.343543
vt 0.241655 0.343517
vt 0.274207 0.343295
vt 0.158319 0.436752
vt 0.158055 0.438682
vt 0.161155 0.438926
vt 0.239574 0.375881
vt 0.239574 0.343543
vt 0.248374 0.497409
vt 0.250718 0.479793
vt 0.250718 0.497409
vt 0.239574 0.479793
vt 0.239574 0.497409
vt 0.242642 0.497409
vt 0.181612 0.482881
vt 0.192565 0.482882
vt 0.181612 0.481484
vt 0.184461 0.477534
vt 0.183804 0.478191
vt 0.203517 0.482883
vt 0.203517 0.481486
vt 0.200668 0.477536
vt 0.201326 0.478193
vt 0.192565 0.489878
vt 0.186713 0.489878
vt 0.180590 0.489878
vt 0.180591 0.483541
vt 0.198415 0.489878
vt 0.204538 0.489878
vt 0.204538 0.483544
vt 0.192567 0.428592
vt 0.184464 0.434165
vt 0.192567 0.447418
vt 0.184464 0.438586
vt 0.183806 0.439243
vt 0.181615 0.442982
vt 0.181615 0.447418
vt 0.181613 0.466723
vt 0.183804 0.469575
vt 0.192565 0.466723
vt 0.184461 0.470232
vt 0.203518 0.466725
vt 0.201326 0.469576
vt 0.200669 0.470233
vt 0.200671 0.434166
vt 0.200671 0.438587
vt 0.201328 0.439244
vt 0.203520 0.442983
vt 0.203521 0.447419
vt 0.248375 0.497409
vt 0.239573 0.479793
vt 0.239573 0.497409
vt 0.278095 0.479793
vt 0.278095 0.497409
vt 0.213643 0.497203
vt 0.213643 0.500416
vt 0.242642 0.499286
vt 0.248375 0.499286
vt 0.222971 0.497212
vt 0.222971 0.500425
vt 0.216116 0.502875
vt 0.215187 0.501063
vt 0.215187 0.502886
vt 0.220534 0.502875
vt 0.221467 0.502864
vt 0.221467 0.501095
vt 0.223435 0.497236
vt 0.223435 0.500448
vt 0.280167 0.499498
vt 0.288781 0.499498
vt 0.235757 0.497241
vt 0.235757 0.500453
vt 0.224651 0.502439
vt 0.223989 0.501787
vt 0.233281 0.502961
vt 0.225978 0.502961
vt 0.235226 0.501734
vt 0.234574 0.502396
vt 0.248374 0.499286
vt 0.220533 0.502875
vt 0.225977 0.502961
vt 0.233280 0.502961
vt 0.205573 0.392953
vt 0.211521 0.392953
vt 0.211521 0.374089
vt 0.205573 0.374088
vt 0.317968 0.447141
vt 0.317968 0.466617
vt 0.319454 0.466582
vt 0.319456 0.447140
vt 0.205573 0.410661
vt 0.211521 0.410661
vt 0.295183 0.375881
vt 0.301384 0.375881
vt 0.301384 0.393170
vt 0.295183 0.393170
vt 0.319455 0.428858
vt 0.317968 0.428858
vt 0.205573 0.428425
vt 0.211521 0.428425
vt 0.301384 0.410393
vt 0.295183 0.410393
vt 0.293999 0.393170
vt 0.294031 0.375881
vt 0.295183 0.343159
vt 0.301384 0.343122
vt 0.321004 0.488939
vt 0.320969 0.466551
vt 0.320969 0.447140
vt 0.320969 0.428859
vt 0.319457 0.410513
vt 0.317968 0.410513
vt 0.205573 0.446231
vt 0.211521 0.446231
vt 0.301384 0.427667
vt 0.295183 0.427667
vt 0.294004 0.410393
vt 0.292630 0.393170
vt 0.292667 0.375881
vt 0.294016 0.343244
vt 0.301384 0.340142
vt 0.301384 0.337125
vt 0.301384 0.334314
vt 0.302348 0.340928
vt 0.302348 0.346963
vt 0.308651 0.497059
vt 0.302992 0.497059
vt 0.302992 0.498530
vt 0.308651 0.498530
vt 0.308620 0.436214
vt 0.302886 0.436214
vt 0.302886 0.454561
vt 0.308620 0.454561
vt 0.320969 0.410513
vt 0.317968 0.392128
vt 0.319456 0.392126
vt 0.205573 0.464107
vt 0.211521 0.464106
vt 0.301384 0.444980
vt 0.295183 0.444981
vt 0.294006 0.427667
vt 0.292637 0.410393
vt 0.291430 0.375881
vt 0.291430 0.393170
vt 0.292653 0.343269
vt 0.177650 0.484888
vt 0.177650 0.482950
vt 0.170645 0.482950
vt 0.170645 0.484888
vt 0.242100 0.546527
vt 0.242100 0.545115
vt 0.236264 0.545115
vt 0.236264 0.546527
vt 0.325261 0.489120
vt 0.325260 0.499248
vt 0.314310 0.498530
vt 0.314310 0.497059
vt 0.308620 0.474038
vt 0.302886 0.474038
vt 0.302886 0.496615
vt 0.308620 0.496615
vt 0.314353 0.454561
vt 0.314353 0.436214
vt 0.308620 0.417800
vt 0.302886 0.417800
vt 0.319456 0.373675
vt 0.317968 0.373676
vt 0.205573 0.481992
vt 0.211521 0.481992
vt 0.301384 0.462371
vt 0.295183 0.462371
vt 0.294001 0.444980
vt 0.292643 0.427667
vt 0.291430 0.410393
vt 0.278095 0.375881
vt 0.278095 0.393170
vt 0.291430 0.343248
vt 0.242100 0.543847
vt 0.236264 0.543847
vt 0.314353 0.496615
vt 0.314353 0.474038
vt 0.329584 0.488939
vt 0.331070 0.466581
vt 0.329554 0.466550
vt 0.314353 0.417800
vt 0.331067 0.447139
vt 0.331067 0.428856
vt 0.329554 0.428857
vt 0.329554 0.447138
vt 0.308620 0.399345
vt 0.302886 0.399345
vt 0.320969 0.392125
vt 0.320969 0.373675
vt 0.317968 0.355215
vt 0.319459 0.355207
vt 0.205573 0.500073
vt 0.211521 0.500073
vt 0.301384 0.479793
vt 0.295183 0.479793
vt 0.294005 0.462371
vt 0.292638 0.444980
vt 0.291430 0.427667
vt 0.278095 0.410393
vt 0.276894 0.393170
vt 0.276914 0.375881
vt 0.278095 0.343341
vt 0.154648 0.482950
vt 0.154648 0.484888
vt 0.308350 0.537575
vt 0.308321 0.538243
vt 0.310129 0.538287
vt 0.310160 0.537624
vt 0.242100 0.520155
vt 0.236264 0.520155
vt 0.230428 0.545115
vt 0.230428 0.543847
vt 0.230428 0.546527
vt 0.332555 0.466616
vt 0.314353 0.399345
vt 0.331066 0.410510
vt 0.329554 0.410510
vt 0.332555 0.447139
vt 0.332555 0.428855
vt 0.308620 0.380834
vt 0.302886 0.380834
vt 0.320969 0.355199
vt 0.319451 0.338341
vt 0.317968 0.336581
vt 0.301384 0.497409
vt 0.295183 0.497409
vt 0.294009 0.479793
vt 0.292638 0.462371
vt 0.291430 0.444981
vt 0.278095 0.427667
vt 0.276905 0.410393
vt 0.275432 0.393170
vt 0.275451 0.375881
vt 0.276955 0.343414
vt 0.274385 0.334314
vt 0.273265 0.337167
vt 0.152157 0.484888
vt 0.152157 0.482950
vt 0.303842 0.537579
vt 0.303788 0.538248
vt 0.308296 0.538562
vt 0.310110 0.538595
vt 0.245013 0.543847
vt 0.245013 0.520155
vt 0.230428 0.520155
vt 0.314353 0.380834
vt 0.331067 0.392123
vt 0.329554 0.392122
vt 0.332555 0.410510
vt 0.308620 0.362298
vt 0.302886 0.362298
vt 0.186420 0.492181
vt 0.192564 0.492182
vt 0.294005 0.497409
vt 0.292647 0.479793
vt 0.291430 0.462371
vt 0.278095 0.444980
vt 0.276908 0.427667
vt 0.275443 0.410393
vt 0.274206 0.375881
vt 0.274206 0.393170
vt 0.275495 0.343402
vt 0.149235 0.482950
vt 0.149235 0.484888
vt 0.303194 0.537552
vt 0.302669 0.538152
vt 0.303754 0.538560
vt 0.308273 0.539384
vt 0.310087 0.539399
vt 0.308273 0.546072
vt 0.310087 0.546072
vt 0.227516 0.543847
vt 0.227516 0.520155
vt 0.083167 0.604816
vt 0.083167 0.610852
vt 0.314353 0.362298
vt 0.331066 0.373672
vt 0.329554 0.373672
vt 0.332555 0.392125
vt 0.301385 0.393170
vt 0.301385 0.410393
vt 0.308620 0.347172
vt 0.302886 0.347172
vt 0.320969 0.340102
vt 0.198707 0.492182
vt 0.186810 0.494485
vt 0.192564 0.494485
vt 0.292641 0.497409
vt 0.278095 0.462371
vt 0.276899 0.444980
vt 0.275449 0.427667
vt 0.274206 0.410393
vt 0.258596 0.375881
vt 0.258596 0.393170
vt 0.144836 0.482950
vt 0.144836 0.484888
vt 0.301768 0.538495
vt 0.303734 0.539375
vt 0.303734 0.546072
vt 0.295382 0.527807
vt 0.293479 0.527822
vt 0.293479 0.534823
vt 0.295382 0.534823
vt 0.301385 0.375881
vt 0.301385 0.343122
vt 0.314353 0.347172
vt 0.331064 0.355203
vt 0.329554 0.355197
vt 0.332555 0.373672
vt 0.301385 0.427667
vt 0.198316 0.494485
vt 0.332555 0.355211
vt 0.332555 0.336577
vt 0.331072 0.338338
vt 0.276907 0.462371
vt 0.275440 0.444980
vt 0.274206 0.427667
vt 0.258596 0.410393
vt 0.256864 0.375881
vt 0.256846 0.393170
vt 0.258596 0.343346
vt 0.135356 0.482950
vt 0.135356 0.484888
vt 0.258465 0.340227
vt 0.301772 0.539353
vt 0.301779 0.546072
vt 0.300143 0.527798
vt 0.300143 0.534823
vt 0.295358 0.526945
vt 0.293455 0.526980
vt 0.295303 0.525911
vt 0.293404 0.525961
vt 0.293435 0.526656
vt 0.295333 0.526611
vt 0.125348 0.480576
vt 0.118343 0.480576
vt 0.118343 0.482515
vt 0.125348 0.482515
vt 0.301385 0.340142
vt 0.301385 0.337125
vt 0.301385 0.334314
vt 0.329554 0.340099
vt 0.301385 0.444980
vt 0.294007 0.427667
vt 0.292638 0.410393
vt 0.292631 0.393170
vt 0.276908 0.479793
vt 0.275445 0.462371
vt 0.274206 0.444981
vt 0.258595 0.427667
vt 0.256870 0.410393
vt 0.256849 0.344565
vt 0.128114 0.482950
vt 0.128114 0.484888
vt 0.298887 0.538564
vt 0.298925 0.539381
vt 0.250718 0.343462
vt 0.250962 0.340366
vt 0.298925 0.546072
vt 0.302203 0.527774
vt 0.302191 0.534823
vt 0.300123 0.526942
vt 0.300032 0.525912
vt 0.300088 0.526614
vt 0.292654 0.343269
vt 0.301385 0.462371
vt 0.294002 0.444980
vt 0.292644 0.427667
vt 0.294010 0.479793
vt 0.294006 0.497409
vt 0.301385 0.497409
vt 0.301385 0.479793
vt 0.292648 0.479793
vt 0.276855 0.497409
vt 0.204541 0.441471
vt 0.204541 0.439261
vt 0.275455 0.479793
vt 0.274206 0.462371
vt 0.258595 0.444980
vt 0.256879 0.427667
vt 0.252499 0.410393
vt 0.252475 0.393170
vt 0.252489 0.375881
vt 0.252499 0.344607
vt 0.120321 0.482950
vt 0.120321 0.484888
vt 0.296858 0.538596
vt 0.296871 0.539397
vt 0.243245 0.341997
vt 0.296871 0.546072
vt 0.305195 0.527804
vt 0.305178 0.534823
vt 0.302208 0.526874
vt 0.300711 0.525884
vt 0.301262 0.526514
vt 0.141345 0.480576
vt 0.141345 0.482515
vt 0.292639 0.444980
vt 0.278096 0.393170
vt 0.278096 0.410393
vt 0.275402 0.497409
vt 0.274206 0.479793
vt 0.258595 0.462371
vt 0.256861 0.444980
vt 0.252505 0.427667
vt 0.250718 0.393170
vt 0.250718 0.410393
vt 0.250718 0.375881
vt 0.118287 0.482950
vt 0.118287 0.484888
vt 0.294748 0.539128
vt 0.294279 0.539380
vt 0.294279 0.546072
vt 0.307342 0.527821
vt 0.307342 0.534823
vt 0.305230 0.526947
vt 0.143836 0.482515
vt 0.143836 0.480576
vt 0.278096 0.375881
vt 0.278096 0.343341
vt 0.278096 0.427667
vt 0.276895 0.393170
vt 0.276909 0.479793
vt 0.274206 0.497409
vt 0.258595 0.479793
vt 0.256882 0.462371
vt 0.250718 0.427667
vt 0.252488 0.444980
vt 0.239573 0.410393
vt 0.239573 0.393170
vt 0.177996 0.438182
vt 0.177831 0.462082
vt 0.179858 0.462082
vt 0.310061 0.527804
vt 0.310061 0.534823
vt 0.307357 0.526981
vt 0.160637 0.480576
vt 0.151157 0.480576
vt 0.151157 0.482515
vt 0.160637 0.482515
vt 0.146758 0.480576
vt 0.146758 0.482515
vt 0.274386 0.334314
vt 0.273266 0.337167
vt 0.276915 0.375881
vt 0.276956 0.343414
vt 0.278096 0.444980
vt 0.278096 0.462371
vt 0.276908 0.462371
vt 0.274207 0.497409
vt 0.275446 0.462371
vt 0.258596 0.497409
vt 0.256884 0.479793
vt 0.250718 0.444981
vt 0.252513 0.462371
vt 0.239573 0.427667
vt 0.215387 0.416453
vt 0.215387 0.400606
vt 0.213032 0.400606
vt 0.213032 0.416453
vt 0.180761 0.435749
vt 0.170506 0.438152
vt 0.170506 0.462082
vt 0.163016 0.438182
vt 0.161155 0.462082
vt 0.163182 0.462082
vt 0.309571 0.527540
vt 0.167879 0.480576
vt 0.167879 0.482515
vt 0.276900 0.444980
vt 0.274207 0.393170
vt 0.274207 0.410393
vt 0.258596 0.479793
vt 0.256775 0.497409
vt 0.250718 0.462371
vt 0.252514 0.479793
vt 0.215387 0.386220
vt 0.213032 0.386220
vt 0.215387 0.432354
vt 0.213032 0.432354
vt 0.239573 0.444981
vt 0.225696 0.400606
vt 0.225696 0.416453
vt 0.215387 0.353596
vt 0.213032 0.353596
vt 0.170506 0.435749
vt 0.160251 0.435749
vt 0.177705 0.480576
vt 0.175671 0.480576
vt 0.175671 0.482515
vt 0.177705 0.482515
vt 0.274207 0.375881
vt 0.274207 0.444981
vt 0.258596 0.462371
vt 0.256885 0.479793
vt 0.252399 0.497409
vt 0.225696 0.386220
vt 0.215387 0.448296
vt 0.213032 0.448296
vt 0.225696 0.432354
vt 0.239573 0.462371
vt 0.236004 0.416453
vt 0.236004 0.400606
vt 0.225696 0.353596
vt 0.236004 0.386220
vt 0.238359 0.386220
vt 0.238359 0.353596
vt 0.236004 0.353596
vt 0.252500 0.344607
vt 0.256850 0.344565
vt 0.258596 0.427667
vt 0.256847 0.393170
vt 0.256871 0.410393
vt 0.258596 0.444980
vt 0.256883 0.462371
vt 0.215387 0.464320
vt 0.213032 0.464320
vt 0.225696 0.448296
vt 0.236004 0.432354
vt 0.238359 0.416453
vt 0.238359 0.400606
vt 0.215387 0.480401
vt 0.213032 0.480401
vt 0.225696 0.464320
vt 0.236004 0.448296
vt 0.238359 0.432354
vt 0.239574 0.393170
vt 0.239574 0.410393
vt 0.252506 0.427667
vt 0.215387 0.496733
vt 0.213032 0.496733
vt 0.225696 0.480401
vt 0.236004 0.464320
vt 0.238359 0.448296
vt 0.239574 0.427667
vt 0.225696 0.496733
vt 0.236004 0.480401
vt 0.238359 0.464320
vt 0.239574 0.444981
vt 0.239574 0.462371
vt 0.236004 0.496733
vt 0.238359 0.480401
vt 0.238359 0.496733
vt 0.180594 0.439260
vt 0.180594 0.441470
vt 0.183806 0.433509
vt 0.182259 0.428592
vt 0.180594 0.430258
vt 0.180594 0.433526
vt 0.202875 0.428592
vt 0.201328 0.433509
vt 0.204541 0.433526
vt 0.204540 0.430258
vt 0.204538 0.480800
vt 0.204538 0.478210
vt 0.181612 0.465269
vt 0.180595 0.448883
vt 0.180590 0.464597
vt 0.180591 0.478208
vt 0.180591 0.480798
vt 0.192567 0.465270
vt 0.180591 0.467341
vt 0.180591 0.469592
vt 0.204539 0.469595
vt 0.204539 0.467343
vt 0.203517 0.465272
vt 0.204538 0.464600
vt 0.204542 0.448885
s 1
usemtl material_atlas_00001_1
f 1/1/1 2/2/1 3/3/1
f 2/2/1 4/4/1 3/3/1
f 4/4/1 5/5/2 3/3/1
f 5/5/2 6/6/2 3/3/1
f 7/7/1 8/8/1 9/9/1
f 9/9/1 8/8/1 10/10/1
f 10/10/1 8/8/1 11/11/1
f 8/8/1 12/12/3 11/11/1
f 13/1/1 14/3/1 15/13/1
f 14/3/1 16/14/1 15/13/1
f 16/14/1 17/5/1 15/13/1
f 17/5/1 18/15/1 15/13/1
f 19/7/1 20/9/1 21/8/1
f 20/9/1 22/10/4 21/8/1
f 22/10/4 23/11/1 21/8/1
f 23/11/1 24/12/4 21/8/1
f 25/16/5 26/17/5 27/18/5
f 28/19/5 29/20/5 26/17/5
f 29/20/5 27/18/5 26/17/5
f 26/21/6 30/22/7 31/23/8
f 32/24/9 33/25/10 34/26/11
f 34/26/11 35/27/12 36/28/13
f 37/29/14 38/30/15 39/31/16
f 38/30/15 40/32/17 39/31/16
f 39/31/16 40/32/17 41/33/17
f 35/27/12 42/34/18 43/35/19
f 44/36/20 45/37/21 46/38/13
f 47/39/22 48/40/23 49/41/24
f 50/42/25 51/43/26 44/36/20
f 45/37/21 52/44/27 53/45/28
f 54/46/29 53/45/28 55/47/30
f 56/48/31 57/49/32 58/50/33
f 58/50/33 57/49/32 59/51/17
f 57/49/32 60/52/17 59/51/17
f 61/20/5 62/18/5 47/19/5
f 63/17/5 47/19/5 64/16/5
f 47/19/5 62/18/5 64/16/5
f 65/53/34 66/54/35 67/55/36
f 68/56/37 69/28/38 70/27/39
f 71/24/40 68/56/37 72/25/41
f 70/27/39 73/57/42 74/34/43
f 75/58/44 76/38/38 77/37/45
f 78/59/46 79/60/47 80/61/48
f 81/62/49 82/63/49 83/64/49
f 84/42/50 75/58/44 85/43/51
f 86/65/52 81/66/34 83/67/53
f 77/37/45 87/45/54 88/44/55
f 89/46/56 90/68/57 87/45/54
f 91/69/49 92/70/49 93/71/49
f 94/72/58 92/67/59 91/73/48
f 95/74/34 96/75/60 97/76/61
f 98/77/62 99/78/63 100/79/48
f 101/80/64 102/81/64 103/82/64
f 104/83/64 105/84/64 102/81/64
f 102/81/64 105/84/64 103/82/64
f 106/85/65 107/86/66 102/81/64
f 108/87/64 102/81/64 109/88/64
f 102/81/64 107/86/66 109/88/64
f 110/89/64 102/81/64 111/90/64
f 102/81/64 101/80/64 111/90/64
f 112/91/65 111/90/64 113/92/67
f 101/80/64 113/92/67 111/90/64
f 102/81/64 110/89/64 106/85/65
f 110/89/64 114/93/64 106/85/65
f 115/94/64 116/95/65 114/93/64
f 106/85/65 114/93/64 116/95/65
f 117/96/64 118/97/64 119/98/64
f 118/97/64 120/99/64 119/98/64
f 120/99/64 121/100/64 119/98/64
f 121/100/64 122/101/64 119/98/64
f 123/102/65 119/98/64 122/101/64
f 124/103/65 125/104/65 126/105/64
f 102/81/64 126/105/64 104/83/64
f 125/104/65 127/106/65 126/105/64
f 126/105/64 127/106/65 104/83/64
f 128/107/64 126/105/64 129/108/64
f 102/81/64 108/87/64 126/105/64
f 129/108/64 126/105/64 130/109/67
f 126/105/64 108/87/64 130/109/67
f 117/96/64 119/98/64 131/110/65
f 131/110/65 119/98/64 132/111/64
f 132/111/64 119/98/64 133/112/64
f 133/112/64 119/98/64 134/113/65
f 119/98/64 135/114/64 134/113/65
f 80/61/48 136/53/48 78/59/46
f 78/59/46 136/53/48 137/54/68
f 137/54/68 136/53/48 138/55/69
f 139/75/70 140/115/48 141/76/71
f 100/79/48 140/115/48 98/77/62
f 98/77/62 140/115/48 139/75/70
f 142/116/72 143/79/34 144/117/73
f 96/75/60 95/74/34 142/116/72
f 142/116/72 95/74/34 143/79/34
f 145/118/74 146/61/34 147/119/75
f 66/54/35 65/53/34 145/118/74
f 145/118/74 65/53/34 146/61/34
f 4/4/76 2/2/77 100/120/78
f 4/4/76 100/120/78 148/121/79
f 100/79/80 2/122/81 1/123/82
f 100/79/80 1/123/82 140/115/83
f 140/124/84 1/1/85 3/3/86
f 140/124/84 3/3/86 133/125/85
f 131/126/87 5/5/88 4/127/88
f 131/126/87 4/127/88 148/128/87
f 132/129/34 6/6/34 5/5/34
f 132/129/34 5/5/34 131/126/34
f 133/130/89 3/131/89 6/6/89
f 133/130/89 6/6/89 132/129/89
f 12/12/90 8/8/91 80/132/92
f 12/12/90 80/132/92 129/133/93
f 80/61/94 8/134/94 7/135/95
f 80/61/94 7/135/95 136/53/96
f 136/136/97 7/7/98 9/9/99
f 136/136/97 9/9/99 109/137/98
f 130/138/88 11/11/100 12/12/101
f 130/138/88 12/12/101 129/139/88
f 108/140/34 10/10/34 11/11/34
f 108/140/34 11/11/34 130/141/34
f 109/142/89 9/9/102 10/10/89
f 109/142/89 10/10/89 108/143/89
f 143/120/103 15/13/104 18/15/105
f 143/120/103 18/15/105 149/121/103
f 13/144/106 15/122/106 143/79/107
f 13/144/106 143/79/107 95/74/108
f 14/3/109 13/1/110 95/124/111
f 14/3/109 95/124/111 121/125/109
f 120/145/112 16/14/112 14/131/112
f 120/145/112 14/131/112 121/130/112
f 118/126/48 17/5/48 16/14/48
f 118/126/48 16/14/48 120/145/48
f 149/128/113 18/127/114 17/5/113
f 149/128/113 17/5/113 118/126/113
f 146/132/115 21/8/116 24/12/117
f 146/132/115 24/12/117 125/133/115
f 19/135/118 21/134/118 146/61/118
f 19/135/118 146/61/118 65/53/118
f 20/9/119 19/7/120 65/136/121
f 20/9/119 65/136/121 105/137/122
f 104/143/112 22/10/112 20/9/119
f 104/143/112 20/9/119 105/142/122
f 127/146/48 23/11/48 22/10/48
f 127/146/48 22/10/48 104/147/48
f 125/139/113 24/12/113 23/11/113
f 125/139/113 23/11/113 127/138/113
f 150/148/123 151/149/123 152/150/124
f 150/148/123 152/150/124 153/151/124
f 150/152/125 153/153/126 154/154/127
f 150/152/125 154/154/127 155/155/128
f 156/156/129 157/157/129 151/149/123
f 156/156/129 151/149/123 150/148/123
f 158/158/130 152/159/34 151/160/34
f 158/158/130 151/160/34 159/161/131
f 28/19/5 26/17/5 153/151/124
f 28/19/5 153/151/124 152/150/124
f 31/23/8 154/154/127 153/153/126
f 31/23/8 153/153/126 26/21/6
f 150/152/125 155/155/128 160/162/132
f 150/152/125 160/162/132 156/163/133
f 161/164/134 162/165/134 157/157/129
f 161/164/134 157/157/129 156/156/129
f 151/160/34 157/166/34 163/167/135
f 151/160/34 163/167/135 159/161/131
f 159/161/131 164/168/136 165/169/137
f 159/161/131 165/169/137 158/158/130
f 166/170/138 28/171/139 152/159/34
f 166/170/138 152/159/34 158/158/130
f 154/154/127 31/23/8 167/172/140
f 154/154/127 167/172/140 168/173/141
f 155/155/128 154/154/127 168/173/141
f 155/155/128 168/173/141 169/174/142
f 155/155/128 169/174/142 170/175/143
f 155/155/128 170/175/143 160/162/132
f 156/163/133 160/162/132 171/176/144
f 156/163/133 171/176/144 161/177/145
f 172/178/146 173/179/146 162/165/134
f 172/178/146 162/165/134 161/164/134
f 163/167/135 157/166/34 162/180/34
f 163/167/135 162/180/34 174/181/147
f 163/167/135 175/182/148 164/168/136
f 163/167/135 164/168/136 159/161/131
f 176/183/149 177/184/150 165/169/137
f 176/183/149 165/169/137 164/168/136
f 165/169/137 178/185/151 166/170/138
f 165/169/137 166/170/138 158/158/130
f 166/170/138 32/24/9 29/186/152
f 166/170/138 29/186/152 28/171/139
f 34/26/11 27/187/153 29/186/152
f 34/26/11 29/186/152 32/24/9
f 36/28/13 25/188/13 27/187/153
f 36/28/13 27/187/153 34/26/11
f 26/189/154 25/190/155 37/29/156
f 26/189/154 37/29/156 39/31/157
f 179/191/158 167/192/158 31/193/158
f 179/191/158 31/193/158 180/194/158
f 181/195/129 170/196/143 169/197/142
f 181/195/129 169/197/142 182/198/123
f 171/176/144 160/162/132 170/175/143
f 171/176/144 170/175/143 183/199/159
f 172/200/160 161/177/145 171/176/144
f 172/200/160 171/176/144 184/201/161
f 185/202/162 186/203/162 173/179/146
f 185/202/162 173/179/146 172/178/146
f 174/181/147 162/180/34 173/204/34
f 174/181/147 173/204/34 187/205/163
f 174/181/147 188/206/164 175/182/148
f 174/181/147 175/182/148 163/167/135
f 189/207/165 176/183/149 164/168/136
f 189/207/165 164/168/136 175/182/148
f 190/208/166 177/184/150 176/183/149
f 190/208/166 176/183/149 191/209/167
f 177/184/150 192/210/168 178/185/151
f 177/184/150 178/185/151 165/169/137
f 166/170/138 178/185/151 33/25/10
f 166/170/138 33/25/10 32/24/9
f 37/211/156 25/212/155 36/213/169
f 37/211/156 36/213/169 193/214/170
f 30/215/171 26/216/172 194/217/173
f 30/215/171 194/217/173 195/218/174
f 180/219/5 31/23/5 30/22/5
f 180/219/5 30/22/5 195/220/5
f 179/191/158 180/194/158 48/221/158
f 179/191/158 48/221/158 196/222/158
f 197/223/175 168/224/141 167/225/140
f 197/223/175 167/225/140 179/226/5
f 182/198/123 169/197/142 168/224/141
f 182/198/123 168/224/141 197/223/175
f 181/195/129 182/198/123 198/227/176
f 181/195/129 198/227/176 199/228/177
f 200/229/134 183/230/159 170/196/143
f 200/229/134 170/196/143 181/195/129
f 172/200/160 184/201/161 201/231/178
f 172/200/160 201/231/178 185/232/179
f 202/233/180 203/234/180 186/203/162
f 202/233/180 186/203/162 185/202/162
f 187/205/163 173/204/34 186/235/34
f 187/205/163 186/235/34 204/236/181
f 187/205/163 205/237/182 188/206/164
f 187/205/163 188/206/164 174/181/147
f 206/238/183 189/207/165 175/182/148
f 206/238/183 175/182/148 188/206/164
f 191/209/167 176/183/149 189/207/165
f 191/209/167 189/207/165 207/239/184
f 208/240/185 190/208/166 191/209/167
f 208/240/185 191/209/167 209/241/186
f 190/208/166 210/242/187 192/210/168
f 190/208/166 192/210/168 177/184/150
f 192/210/168 42/34/18 33/25/10
f 192/210/168 33/25/10 178/185/151
f 35/27/12 34/26/11 33/25/10
f 35/27/12 33/25/10 42/34/18
f 46/38/13 36/28/13 35/27/12
f 46/38/13 35/27/12 44/36/20
f 26/216/172 39/243/188 211/244/189
f 26/216/172 211/244/189 194/217/173
f 180/219/5 195/220/5 49/41/5
f 180/219/5 49/41/5 48/40/5
f 197/223/175 179/226/5 196/245/190
f 197/223/175 196/245/190 212/246/191
f 196/247/190 48/40/23 213/248/192
f 196/247/190 213/248/192 212/249/191
f 182/198/123 197/223/175 212/246/191
f 182/198/123 212/246/191 198/227/176
f 200/229/134 181/195/129 199/228/177
f 200/229/134 199/228/177 214/250/193
f 215/251/194 216/252/195 199/253/177
f 215/251/194 199/253/177 198/254/176
f 217/255/146 218/256/196 183/230/159
f 217/255/146 183/230/159 200/229/134
f 184/201/161 171/176/144 183/199/159
f 184/201/161 183/199/159 218/257/196
f 184/201/161 218/257/196 219/258/197
f 184/201/161 219/258/197 201/231/178
f 202/259/198 185/232/179 201/231/178
f 202/259/198 201/231/178 220/260/199
f 111/261/200 112/262/200 203/234/180
f 111/261/200 203/234/180 202/233/180
f 204/236/181 186/235/34 203/263/34
f 204/236/181 203/263/34 221/264/201
f 204/236/181 222/265/202 205/237/182
f 204/236/181 205/237/182 187/205/163
f 223/266/203 206/238/183 188/206/164
f 223/266/203 188/206/164 205/237/182
f 207/239/184 189/207/165 206/238/183
f 207/239/184 206/238/183 224/267/204
f 191/209/167 207/239/184 225/268/205
f 191/209/167 225/268/205 209/241/186
f 209/241/186 226/269/206 227/270/207
f 209/241/186 227/270/207 208/240/185
f 208/240/185 228/271/208 210/242/187
f 208/240/185 210/242/187 190/208/166
f 42/34/18 192/210/168 210/242/187
f 42/34/18 210/242/187 43/35/19
f 46/272/209 229/273/210 193/214/170
f 46/272/209 193/214/170 36/213/169
f 44/36/20 35/27/12 43/35/19
f 44/36/20 43/35/19 50/42/25
f 193/274/211 230/275/211 38/276/212
f 193/274/211 38/276/212 37/277/212
f 39/243/16 231/278/17 232/279/17
f 39/243/16 232/279/17 211/244/17
f 47/280/213 194/217/173 211/244/189
f 47/280/213 211/244/189 57/281/214
f 49/282/215 195/218/174 194/217/173
f 49/282/215 194/217/173 47/280/213
f 233/283/216 213/248/192 48/40/23
f 233/283/216 48/40/23 47/39/22
f 215/251/194 198/254/176 212/249/191
f 215/251/194 212/249/191 213/248/192
f 217/255/146 200/229/134 214/250/193
f 217/255/146 214/250/193 234/284/217
f 235/285/218 214/286/193 199/253/177
f 235/285/218 199/253/177 216/252/195
f 236/287/219 237/288/220 216/252/195
f 236/287/219 216/252/195 215/251/194
f 238/289/221 219/290/197 218/256/196
f 238/289/221 218/256/196 217/255/146
f 220/260/199 201/231/178 219/258/197
f 220/260/199 219/258/197 239/291/222
f 240/292/223 111/293/224 202/259/198
f 240/292/223 202/259/198 220/260/199
f 221/264/201 203/263/34 112/294/34
f 221/264/201 112/294/34 113/295/225
f 221/264/201 241/296/226 222/265/202
f 221/264/201 222/265/202 204/236/181
f 242/297/227 223/266/203 205/237/182
f 242/297/227 205/237/182 222/265/202
f 224/267/204 206/238/183 223/266/203
f 224/267/204 223/266/203 243/298/228
f 225/268/205 207/239/184 224/267/204
f 225/268/205 224/267/204 244/299/229
f 225/268/205 245/300/230 226/269/206
f 225/268/205 226/269/206 209/241/186
f 246/301/231 247/302/232 227/270/207
f 246/301/231 227/270/207 226/269/206
f 227/270/207 248/303/233 228/271/208
f 227/270/207 228/271/208 208/240/185
f 228/271/208 50/42/25 43/35/19
f 228/271/208 43/35/19 210/242/187
f 45/37/21 44/36/20 51/43/26
f 45/37/21 51/43/26 52/44/27
f 249/304/13 46/38/13 45/37/21
f 249/304/13 45/37/21 250/305/234
f 251/306/235 229/273/210 46/272/209
f 251/306/235 46/272/209 249/307/236
f 229/308/237 252/309/238 230/275/211
f 229/308/237 230/275/211 193/274/211
f 230/275/239 253/310/239 40/311/240
f 230/275/239 40/311/240 38/276/240
f 41/312/17 254/313/17 231/278/17
f 41/312/17 231/278/17 39/243/16
f 57/281/32 211/244/17 232/279/17
f 57/281/32 232/279/17 255/314/17
f 213/248/192 233/283/216 236/287/219
f 213/248/192 236/287/219 215/251/194
f 238/289/221 217/255/146 234/284/217
f 238/289/221 234/284/217 256/315/241
f 257/316/242 234/317/217 214/286/193
f 257/316/242 214/286/193 235/285/218
f 237/157/129 236/149/123 258/148/123
f 237/157/129 258/148/123 259/156/129
f 237/288/220 260/318/243 235/285/218
f 237/288/220 235/285/218 216/252/195
f 261/319/244 239/320/222 219/290/197
f 261/319/244 219/290/197 238/289/221
f 110/89/245 111/90/245 240/321/245
f 110/89/245 240/321/245 262/322/245
f 113/295/225 101/323/246 241/296/226
f 113/295/225 241/296/226 221/264/201
f 263/324/247 242/297/227 222/265/202
f 263/324/247 222/265/202 241/296/226
f 243/298/228 223/266/203 242/297/227
f 243/298/228 242/297/227 264/325/248
f 244/299/229 224/267/204 243/298/228
f 244/299/229 243/298/228 265/326/249
f 244/299/229 266/327/250 245/300/230
f 244/299/229 245/300/230 225/268/205
f 267/328/251 246/301/231 226/269/206
f 267/328/251 226/269/206 245/300/230
f 268/329/252 247/302/232 246/301/231
f 268/329/252 246/301/231 269/330/253
f 247/302/232 270/331/254 248/303/233
f 247/302/232 248/303/233 227/270/207
f 228/271/208 248/303/233 51/43/26
f 228/271/208 51/43/26 50/42/25
f 270/331/254 52/44/27 51/43/26
f 270/331/254 51/43/26 248/303/233
f 251/306/255 249/307/256 250/332/257
f 251/306/255 250/332/257 271/333/258
f 250/305/234 45/37/21 53/45/28
f 250/305/234 53/45/28 54/46/29
f 252/309/238 229/308/237 251/334/259
f 252/309/238 251/334/259 271/335/260
f 252/309/261 272/336/262 253/310/239
f 252/309/261 253/310/239 230/275/239
f 253/310/263 273/337/264 41/338/263
f 253/310/263 41/338/263 40/311/263
f 273/337/264 274/339/264 254/340/263
f 273/337/264 254/340/263 41/338/263
f 60/341/17 57/281/32 255/314/17
f 60/341/17 255/314/17 275/342/17
f 47/343/265 57/49/265 56/48/266
f 47/343/265 56/48/266 61/344/267
f 63/17/5 276/151/124 233/150/124
f 63/17/5 233/150/124 47/19/5
f 236/149/123 233/150/124 276/151/124
f 236/149/123 276/151/124 258/148/123
f 261/319/244 238/289/221 256/315/241
f 261/319/244 256/315/241 277/345/268
f 257/316/242 278/346/269 256/347/241
f 257/316/242 256/347/241 234/317/217
f 279/348/270 257/316/242 235/285/218
f 279/348/270 235/285/218 260/318/243
f 260/165/134 237/157/129 259/156/129
f 260/165/134 259/156/129 280/164/134
f 258/349/48 281/161/271 282/167/272
f 258/349/48 282/167/272 259/350/48
f 283/351/273 284/352/274 239/320/222
f 283/351/273 239/320/222 261/319/244
f 220/260/199 239/291/222 284/353/274
f 220/260/199 284/353/274 240/292/223
f 110/89/245 262/322/245 285/354/245
f 110/89/245 285/354/245 114/93/245
f 240/321/245 284/355/245 283/356/245
f 240/321/245 283/356/245 262/322/245
f 103/357/275 263/324/247 241/296/226
f 103/357/275 241/296/226 101/323/246
f 264/325/248 242/297/227 263/324/247
f 264/325/248 263/324/247 66/54/35
f 265/326/249 243/298/228 264/325/248
f 265/326/249 264/325/248 286/358/276
f 265/326/249 287/359/277 266/327/250
f 265/326/249 266/327/250 244/299/229
f 288/360/278 267/328/251 245/300/230
f 288/360/278 245/300/230 266/327/250
f 269/330/253 246/301/231 267/328/251
f 269/330/253 267/328/251 289/361/279
f 290/362/280 268/329/252 269/330/253
f 290/362/280 269/330/253 291/363/281
f 268/329/252 55/47/30 270/331/254
f 268/329/252 270/331/254 247/302/232
f 55/47/30 53/45/28 52/44/27
f 55/47/30 52/44/27 270/331/254
f 250/332/257 54/364/282 292/365/283
f 250/332/257 292/365/283 271/333/258
f 272/336/262 252/309/261 271/335/284
f 272/336/262 271/335/284 292/366/285
f 272/336/286 293/367/286 273/337/264
f 272/336/286 273/337/264 253/310/263
f 293/367/286 294/368/287 274/339/264
f 293/367/286 274/339/264 273/337/264
f 295/369/288 60/370/289 275/371/289
f 295/369/288 275/371/289 296/372/288
f 297/170/290 298/158/291 276/373/48
f 297/170/290 276/373/48 63/374/292
f 298/158/291 281/161/271 258/349/48
f 298/158/291 258/349/48 276/373/48
f 283/351/273 261/319/244 277/345/268
f 283/351/273 277/345/268 299/375/293
f 300/376/294 277/377/268 256/347/241
f 300/376/294 256/347/241 278/346/269
f 279/348/270 301/378/295 278/346/269
f 279/348/270 278/346/269 257/316/242
f 279/179/146 260/165/134 280/164/134
f 279/179/146 280/164/134 302/178/146
f 282/167/272 303/181/296 280/379/48
f 282/167/272 280/379/48 259/350/48
f 282/167/272 281/161/271 304/168/297
f 282/167/272 304/168/297 305/182/298
f 285/354/245 262/322/245 283/356/245
f 285/354/245 283/356/245 299/380/245
f 306/381/299 114/382/300 285/383/301
f 306/381/299 285/383/301 300/376/294
f 66/54/35 263/324/247 103/357/275
f 66/54/35 103/357/275 67/55/36
f 286/358/276 264/325/248 66/54/35
f 286/358/276 66/54/35 145/118/74
f 286/358/276 307/384/302 287/359/277
f 286/358/276 287/359/277 265/326/249
f 308/385/303 288/360/278 266/327/250
f 308/385/303 266/327/250 287/359/277
f 289/361/279 267/328/251 288/360/278
f 289/361/279 288/360/278 309/386/304
f 269/330/253 289/361/279 310/387/305
f 269/330/253 310/387/305 291/363/281
f 311/388/306 290/362/280 291/363/281
f 311/388/306 291/363/281 312/389/307
f 290/362/280 313/390/308 55/47/30
f 290/362/280 55/47/30 268/329/252
f 314/391/49 315/392/49 292/365/283
f 314/391/49 292/365/283 54/364/282
f 313/390/308 314/393/309 54/46/29
f 313/390/308 54/46/29 55/47/30
f 292/366/287 316/394/286 293/367/286
f 292/366/287 293/367/286 272/336/286
f 316/394/286 317/395/310 294/368/287
f 316/394/286 294/368/287 293/367/286
f 318/396/311 295/369/288 296/372/288
f 318/396/311 296/372/288 319/397/312
f 320/398/288 59/399/289 60/370/289
f 320/398/288 60/370/289 295/369/288
f 321/400/313 56/401/314 58/402/314
f 321/400/313 58/402/314 322/403/313
f 69/404/315 61/405/267 56/406/266
f 69/404/315 56/406/266 321/407/316
f 297/170/290 63/374/292 64/408/317
f 297/170/290 64/408/317 71/24/40
f 69/28/38 68/56/37 62/409/318
f 69/28/38 62/409/318 61/410/38
f 68/56/37 71/24/40 64/408/317
f 68/56/37 64/408/317 62/409/318
f 323/169/319 298/158/291 297/170/290
f 323/169/319 297/170/290 324/185/320
f 281/161/271 298/158/291 323/169/319
f 281/161/271 323/169/319 304/168/297
f 299/411/293 277/377/268 300/376/294
f 299/411/293 300/376/294 285/383/301
f 301/203/162 279/179/146 302/178/146
f 301/203/162 302/178/146 325/202/162
f 278/346/269 301/378/295 306/381/299
f 278/346/269 306/381/299 300/376/294
f 303/181/296 326/205/321 302/412/48
f 303/181/296 302/412/48 280/379/48
f 303/181/296 282/167/272 305/182/298
f 303/181/296 305/182/298 327/413/322
f 328/414/323 305/182/298 304/168/297
f 328/414/323 304/168/297 329/415/324
f 114/262/200 306/234/180 330/233/180
f 114/262/200 330/233/180 115/261/200
f 145/118/74 331/416/325 307/384/302
f 145/118/74 307/384/302 286/358/276
f 332/417/326 308/385/303 287/359/277
f 332/417/326 287/359/277 307/384/302
f 309/386/304 288/360/278 308/385/303
f 309/386/304 308/385/303 333/418/327
f 310/387/305 289/361/279 309/386/304
f 310/387/305 309/386/304 334/419/328
f 310/387/305 335/420/329 312/389/307
f 310/387/305 312/389/307 291/363/281
f 311/388/306 336/421/330 313/390/308
f 311/388/306 313/390/308 290/362/280
f 337/422/331 338/423/332 315/392/49
f 337/422/331 315/392/49 314/391/49
f 315/424/48 339/425/48 316/394/286
f 315/424/48 316/394/286 292/366/287
f 340/426/333 337/427/334 314/393/309
f 340/426/333 314/393/309 313/390/308
f 339/425/48 341/428/48 317/395/310
f 339/425/48 317/395/310 316/394/286
f 342/429/311 318/396/311 319/397/312
f 342/429/311 319/397/312 343/430/335
f 344/431/335 320/398/288 295/369/288
f 344/431/335 295/369/288 318/396/311
f 322/403/336 58/402/337 59/399/337
f 322/403/336 59/399/337 320/398/336
f 345/432/338 321/400/313 322/403/313
f 345/432/338 322/403/313 346/433/339
f 297/170/290 71/24/40 72/25/41
f 297/170/290 72/25/41 324/185/320
f 347/184/340 323/169/319 324/185/320
f 347/184/340 324/185/320 348/434/341
f 329/415/324 304/168/297 323/169/319
f 329/415/324 323/169/319 347/184/340
f 306/234/180 301/203/162 325/202/162
f 306/234/180 325/202/162 330/233/180
f 326/205/321 349/236/342 325/435/48
f 326/205/321 325/435/48 302/412/48
f 326/205/321 303/181/296 327/413/322
f 326/205/321 327/413/322 350/436/343
f 351/437/344 327/413/322 305/182/298
f 351/437/344 305/182/298 328/414/323
f 352/209/345 353/239/346 328/414/323
f 352/209/345 328/414/323 329/415/324
f 116/295/347 354/264/348 355/438/349
f 116/295/347 355/438/349 106/439/350
f 354/264/348 116/295/347 115/440/48
f 354/264/348 115/440/48 330/441/48
f 107/357/351 106/439/350 355/438/349
f 107/357/351 355/438/349 356/442/352
f 147/119/75 124/443/353 331/416/325
f 147/119/75 331/416/325 145/118/74
f 133/112/64 134/113/65 141/444/65
f 133/112/64 141/444/65 140/445/64
f 357/446/354 332/417/326 307/384/302
f 357/446/354 307/384/302 331/416/325
f 333/418/327 308/385/303 332/417/326
f 333/418/327 332/417/326 358/447/355
f 334/419/328 309/386/304 333/418/327
f 334/419/328 333/418/327 359/448/356
f 335/420/329 310/387/305 334/419/328
f 335/420/329 334/419/328 360/449/357
f 312/389/307 335/420/329 361/450/358
f 312/389/307 361/450/358 362/451/359
f 363/452/360 311/388/306 312/389/307
f 363/452/360 312/389/307 362/451/359
f 363/452/360 364/453/361 336/421/330
f 363/452/360 336/421/330 311/388/306
f 313/390/308 336/421/330 364/453/361
f 313/390/308 364/453/361 340/426/333
f 365/454/362 366/455/363 338/423/332
f 365/454/362 338/423/332 337/422/331
f 338/456/48 367/457/48 339/425/48
f 338/456/48 339/425/48 315/424/48
f 365/458/364 337/427/334 340/426/333
f 365/458/364 340/426/333 83/67/53
f 367/457/48 368/459/48 341/428/48
f 367/457/48 341/428/48 339/425/48
f 369/460/34 342/429/311 343/430/335
f 369/460/34 343/430/335 370/461/34
f 371/462/312 344/431/335 318/396/311
f 371/462/312 318/396/311 342/429/311
f 346/433/365 322/403/336 320/398/336
f 346/433/365 320/398/336 344/431/366
f 372/463/367 345/432/338 346/433/339
f 372/463/367 346/433/339 373/464/368
f 76/465/369 69/404/315 321/407/316
f 76/465/369 321/407/316 345/466/370
f 70/27/39 74/34/43 72/25/41
f 70/27/39 72/25/41 68/56/37
f 76/38/38 75/58/44 70/27/39
f 76/38/38 70/27/39 69/28/38
f 374/208/371 347/184/340 348/434/341
f 374/208/371 348/434/341 375/242/372
f 348/434/341 324/185/320 72/25/41
f 348/434/341 72/25/41 74/34/43
f 374/208/371 352/209/345 329/415/324
f 374/208/371 329/415/324 347/184/340
f 349/236/342 354/264/348 330/441/48
f 349/236/342 330/441/48 325/435/48
f 349/236/342 326/205/321 350/436/343
f 349/236/342 350/436/343 376/265/373
f 377/467/374 350/436/343 327/413/322
f 377/467/374 327/413/322 351/437/344
f 353/239/346 378/267/375 351/437/344
f 353/239/346 351/437/344 328/414/323
f 352/209/345 379/468/376 380/469/377
f 352/209/345 380/469/377 353/239/346
f 354/264/348 349/236/342 376/265/373
f 354/264/348 376/265/373 355/438/349
f 137/54/68 138/55/69 107/357/351
f 137/54/68 107/357/351 356/442/352
f 356/442/352 355/438/349 376/265/373
f 356/442/352 376/265/373 381/297/378
f 382/470/379 357/446/354 331/416/325
f 382/470/379 331/416/325 124/443/353
f 358/447/355 332/417/326 357/446/354
f 358/447/355 357/446/354 383/471/380
f 359/448/356 333/418/327 358/447/355
f 359/448/356 358/447/355 384/472/381
f 360/449/357 334/419/328 359/448/356
f 360/449/357 359/448/356 385/473/382
f 361/450/358 335/420/329 360/449/357
f 361/450/358 360/449/357 386/474/383
f 387/475/384 362/451/359 361/450/358
f 387/475/384 361/450/358 388/476/385
f 389/477/386 363/452/360 362/451/359
f 389/477/386 362/451/359 387/475/384
f 364/453/361 363/452/360 389/477/386
f 364/453/361 389/477/386 340/426/333
f 83/478/387 82/479/387 366/455/363
f 83/478/387 366/455/363 365/454/362
f 366/480/48 82/481/48 367/457/48
f 366/480/48 367/457/48 338/456/48
f 82/481/48 390/482/48 368/459/48
f 82/481/48 368/459/48 367/457/48
f 391/483/34 369/460/34 370/461/34
f 391/483/34 370/461/34 392/484/34
f 393/485/34 371/462/312 342/429/311
f 393/485/34 342/429/311 369/460/34
f 344/431/366 371/462/388 373/464/389
f 344/431/366 373/464/389 346/433/365
f 76/465/369 345/466/370 372/486/390
f 76/465/369 372/486/390 394/487/391
f 75/58/44 84/42/50 73/57/42
f 75/58/44 73/57/42 70/27/39
f 395/488/392 374/208/371 375/242/372
f 395/488/392 375/242/372 396/489/393
f 375/242/372 348/434/341 74/34/43
f 375/242/372 74/34/43 73/57/42
f 395/488/392 379/468/376 352/209/345
f 395/488/392 352/209/345 374/208/371
f 381/297/378 376/265/373 350/436/343
f 381/297/378 350/436/343 377/467/374
f 378/267/375 397/298/394 377/467/374
f 378/267/375 377/467/374 351/437/344
f 380/469/377 398/490/395 378/267/375
f 380/469/377 378/267/375 353/239/346
f 380/469/377 379/468/376 399/491/396
f 380/469/377 399/491/396 400/300/397
f 401/325/398 137/54/68 356/442/352
f 401/325/398 356/442/352 381/297/378
f 79/60/47 78/59/46 402/492/399
f 79/60/47 402/492/399 128/443/400
f 403/470/401 128/443/400 402/492/399
f 403/470/401 402/492/399 404/446/402
f 383/471/380 357/446/354 382/470/379
f 383/471/380 382/470/379 405/493/403
f 384/472/381 358/447/355 383/471/380
f 384/472/381 383/471/380 406/494/404
f 385/473/382 359/448/356 384/472/381
f 385/473/382 384/472/381 407/495/405
f 388/476/385 361/450/358 386/474/383
f 388/476/385 386/474/383 408/496/406
f 386/474/383 360/449/357 385/473/382
f 386/474/383 385/473/382 409/497/407
f 387/475/384 388/476/385 410/498/408
f 387/475/384 410/498/408 411/499/409
f 83/67/53 340/426/333 389/477/386
f 83/67/53 389/477/386 86/65/52
f 412/500/410 413/501/410 390/502/410
f 412/500/410 390/502/410 82/63/410
f 93/503/34 391/483/34 392/484/34
f 93/503/34 392/484/34 414/504/34
f 415/505/34 393/485/34 369/460/34
f 415/505/34 369/460/34 391/483/34
f 416/506/49 89/507/411 371/508/412
f 416/506/49 371/508/412 393/509/49
f 417/510/413 373/511/414 371/508/412
f 417/510/413 371/508/412 89/507/411
f 372/486/415 373/511/414 417/510/413
f 372/486/415 417/510/413 394/487/416
f 77/37/45 88/44/55 85/43/51
f 77/37/45 85/43/51 75/58/44
f 394/512/38 417/513/417 77/37/45
f 394/512/38 77/37/45 76/38/38
f 396/489/393 375/242/372 73/57/42
f 396/489/393 73/57/42 84/42/50
f 418/514/418 395/488/392 396/489/393
f 418/514/418 396/489/393 419/515/419
f 379/468/376 395/488/392 418/514/418
f 379/468/376 418/514/418 399/491/396
f 397/298/394 401/325/398 381/297/378
f 397/298/394 381/297/378 377/467/374
f 398/490/395 420/516/420 397/298/394
f 398/490/395 397/298/394 378/267/375
f 398/490/395 380/469/377 400/300/397
f 398/490/395 400/300/397 421/327/421
f 422/328/422 400/300/397 399/491/396
f 422/328/422 399/491/396 423/301/423
f 424/517/424 78/59/46 137/54/68
f 424/517/424 137/54/68 401/325/398
f 78/59/46 424/517/424 425/518/425
f 78/59/46 425/518/425 402/492/399
f 426/471/426 427/519/427 403/470/401
f 426/471/426 403/470/401 404/446/402
f 404/446/402 402/492/399 425/518/425
f 404/446/402 425/518/425 428/520/428
f 406/494/404 383/471/380 405/493/403
f 406/494/404 405/493/403 429/521/429
f 407/495/405 384/472/381 406/494/404
f 407/495/405 406/494/404 430/522/430
f 408/496/406 386/474/383 409/497/407
f 408/496/406 409/497/407 431/523/431
f 409/497/407 385/473/382 407/495/405
f 409/497/407 407/495/405 432/524/432
f 86/65/52 389/477/386 387/475/384
f 86/65/52 387/475/384 411/499/409
f 410/498/408 388/476/385 408/496/406
f 410/498/408 408/496/406 433/525/433
f 434/526/434 435/527/435 411/528/409
f 434/526/434 411/528/409 410/529/408
f 436/530/49 412/500/49 82/63/49
f 436/530/49 82/63/49 81/62/49
f 437/531/5 438/532/5 413/501/5
f 437/531/5 413/501/5 412/500/5
f 439/533/436 93/71/436 414/534/436
f 439/533/436 414/534/436 440/535/436
f 441/536/34 415/505/34 391/483/34
f 441/536/34 391/483/34 93/503/34
f 442/537/331 416/506/49 393/509/49
f 442/537/331 393/509/49 415/538/332
f 443/390/437 90/68/57 89/46/56
f 443/390/437 89/46/56 416/393/438
f 444/331/439 419/515/419 85/43/51
f 444/331/439 85/43/51 88/44/55
f 417/513/417 89/46/56 87/45/54
f 417/513/417 87/45/54 77/37/45
f 396/489/393 84/42/50 85/43/51
f 396/489/393 85/43/51 419/515/419
f 445/302/440 418/514/418 419/515/419
f 445/302/440 419/515/419 444/331/439
f 423/301/423 399/491/396 418/514/418
f 423/301/423 418/514/418 445/302/440
f 420/516/420 424/517/424 401/325/398
f 420/516/420 401/325/398 397/298/394
f 420/516/420 398/490/395 421/327/421
f 420/516/420 421/327/421 446/539/441
f 447/360/442 421/327/421 400/300/397
f 447/360/442 400/300/397 422/328/422
f 448/540/443 449/541/444 422/328/422
f 448/540/443 422/328/422 423/301/423
f 424/517/424 420/516/420 446/539/441
f 424/517/424 446/539/441 425/518/425
f 450/447/445 426/471/426 404/446/402
f 450/447/445 404/446/402 428/520/428
f 451/542/446 452/521/447 427/519/427
f 451/542/446 427/519/427 426/471/426
f 428/520/428 425/518/425 446/539/441
f 428/520/428 446/539/441 453/385/448
f 430/522/430 406/494/404 429/521/429
f 430/522/430 429/521/429 123/543/449
f 431/523/431 409/497/407 432/524/432
f 431/523/431 432/524/432 454/544/450
f 432/524/432 407/495/405 430/522/430
f 432/524/432 430/522/430 455/545/451
f 435/527/435 456/546/452 86/547/52
f 435/527/435 86/547/52 411/528/409
f 457/548/453 434/526/434 410/529/408
f 457/548/453 410/529/408 433/549/433
f 433/525/433 408/496/406 431/523/431
f 433/525/433 431/523/431 458/550/454
f 459/551/455 435/527/435 434/526/434
f 459/551/455 434/526/434 460/552/456
f 456/546/452 436/553/457 81/554/458
f 456/546/452 81/554/458 86/547/52
f 461/555/49 437/531/49 412/500/49
f 461/555/49 412/500/49 436/530/49
f 437/531/5 439/533/5 440/535/5
f 437/531/5 440/535/5 438/532/5
f 462/556/49 91/69/49 93/71/49
f 462/556/49 93/71/49 439/533/49
f 92/557/459 463/558/460 441/559/461
f 92/557/459 441/559/461 93/560/459
f 463/558/460 442/537/331 415/538/332
f 463/558/460 415/538/332 441/559/461
f 464/426/462 443/390/437 416/393/438
f 464/426/462 416/393/438 442/427/463
f 465/362/464 466/561/465 90/68/57
f 465/362/464 90/68/57 443/390/437
f 88/44/55 87/45/54 90/68/57
f 88/44/55 90/68/57 444/331/439
f 466/561/465 445/302/440 444/331/439
f 466/561/465 444/331/439 90/68/57
f 466/561/465 448/540/443 423/301/423
f 466/561/465 423/301/423 445/302/440
f 453/385/448 446/539/441 421/327/421
f 453/385/448 421/327/421 447/360/442
f 449/541/444 467/386/466 447/360/442
f 449/541/444 447/360/442 422/328/422
f 448/540/443 468/363/467 469/387/468
f 448/540/443 469/387/468 449/541/444
f 470/562/469 450/447/445 428/520/428
f 470/562/469 428/520/428 453/385/448
f 471/563/470 451/542/446 426/471/426
f 471/563/470 426/471/426 450/447/445
f 452/521/447 451/542/446 472/564/471
f 452/521/447 472/564/471 135/543/472
f 454/544/450 432/524/432 455/545/451
f 454/544/450 455/545/451 96/75/60
f 455/545/451 430/522/430 123/543/449
f 455/545/451 123/543/449 122/565/473
f 473/566/474 456/546/452 435/527/435
f 473/566/474 435/527/435 459/551/455
f 474/567/475 457/548/453 433/549/433
f 474/567/475 433/549/433 458/568/454
f 460/552/456 434/526/434 457/548/453
f 460/552/456 457/548/453 475/569/476
f 458/550/454 431/523/431 454/544/450
f 458/550/454 454/544/450 476/570/477
f 459/551/455 460/552/456 477/571/478
f 459/551/455 477/571/478 478/572/479
f 456/546/452 473/566/474 461/573/17
f 456/546/452 461/573/17 436/553/457
f 461/555/49 462/556/49 439/533/49
f 461/555/49 439/533/49 437/531/49
f 479/574/480 94/575/58 91/576/481
f 479/574/480 91/576/481 462/577/482
f 463/458/483 92/67/59 464/426/462
f 463/458/483 464/426/462 442/427/463
f 443/390/437 464/426/462 480/578/484
f 443/390/437 480/578/484 481/579/485
f 482/388/486 465/362/464 443/390/437
f 482/388/486 443/390/437 481/579/485
f 465/362/464 468/363/467 448/540/443
f 465/362/464 448/540/443 466/561/465
f 467/386/466 470/562/469 453/385/448
f 467/386/466 453/385/448 447/360/442
f 469/387/468 483/580/487 467/386/466
f 469/387/468 467/386/466 449/541/444
f 469/387/468 468/363/467 484/581/488
f 469/387/468 484/581/488 485/582/489
f 486/583/490 471/563/470 450/447/445
f 486/583/490 450/447/445 470/562/469
f 451/542/446 471/563/470 487/584/491
f 451/542/446 487/584/491 472/564/471
f 96/75/60 455/545/451 122/565/473
f 96/75/60 122/565/473 97/76/61
f 473/566/474 459/551/455 478/572/479
f 473/566/474 478/572/479 479/574/480
f 488/585/492 474/567/475 458/568/454
f 488/585/492 458/568/454 476/586/477
f 475/569/476 457/548/453 474/567/475
f 475/569/476 474/567/475 489/587/493
f 460/552/456 475/569/476 490/588/494
f 460/552/456 490/588/494 477/571/478
f 476/570/477 454/544/450 96/75/60
f 476/570/477 96/75/60 142/116/72
f 477/571/478 491/589/495 492/590/496
f 477/571/478 492/590/496 478/572/479
f 479/574/480 462/577/482 461/573/17
f 479/574/480 461/573/17 473/566/474
f 478/572/479 492/590/496 94/575/58
f 478/572/479 94/575/58 479/574/480
f 92/67/59 94/72/58 493/477/497
f 92/67/59 493/477/497 464/426/462
f 480/578/484 464/426/462 493/477/497
f 480/578/484 493/477/497 494/452/498
f 494/452/498 482/388/486 481/579/485
f 494/452/498 481/579/485 480/578/484
f 468/363/467 465/362/464 482/388/486
f 468/363/467 482/388/486 484/581/488
f 483/580/487 486/583/490 470/562/469
f 483/580/487 470/562/469 467/386/466
f 483/580/487 469/387/468 485/582/489
f 483/580/487 485/582/489 495/449/499
f 484/581/488 496/451/500 497/450/501
f 484/581/488 497/450/501 485/582/489
f 471/563/470 486/583/490 498/473/502
f 471/563/470 498/473/502 487/584/491
f 499/524/503 500/545/504 472/564/471
f 499/524/503 472/564/471 487/584/491
f 500/545/504 134/565/505 135/543/472
f 500/545/504 135/543/472 472/564/471
f 501/591/506 488/585/492 476/586/477
f 501/591/506 476/586/477 142/592/72
f 489/587/493 474/567/475 488/585/492
f 489/587/493 488/585/492 502/593/507
f 475/569/476 489/587/493 503/594/508
f 475/569/476 503/594/508 490/588/494
f 490/588/494 504/595/509 491/589/495
f 490/588/494 491/589/495 477/571/478
f 505/475/510 492/596/496 491/597/495
f 505/475/510 491/597/495 506/476/511
f 94/72/58 492/596/496 505/475/510
f 94/72/58 505/475/510 493/477/497
f 494/452/498 496/451/500 484/581/488
f 494/452/498 484/581/488 482/388/486
f 486/583/490 483/580/487 495/449/499
f 486/583/490 495/449/499 498/473/502
f 505/475/510 506/476/511 497/450/501
f 505/475/510 497/450/501 496/451/500
f 497/450/501 507/598/512 495/449/499
f 497/450/501 495/449/499 485/582/489
f 508/497/513 499/524/503 487/584/491
f 508/497/513 487/584/491 498/473/502
f 500/545/504 499/524/503 509/544/514
f 500/545/504 509/544/514 139/75/70
f 134/565/505 500/545/504 139/75/70
f 134/565/505 139/75/70 141/76/71
f 510/599/515 501/591/506 142/592/72
f 510/599/515 142/592/72 144/600/73
f 502/593/507 488/585/492 501/591/506
f 502/593/507 501/591/506 511/601/516
f 489/587/493 502/593/507 512/602/517
f 489/587/493 512/602/517 503/594/508
f 503/594/508 513/603/518 504/595/509
f 503/594/508 504/595/509 490/588/494
f 491/597/495 504/604/509 514/496/519
f 491/597/495 514/496/519 506/476/511
f 493/477/497 505/475/510 496/451/500
f 493/477/497 496/451/500 494/452/498
f 507/598/512 497/450/501 506/476/511
f 507/598/512 506/476/511 514/496/519
f 507/598/512 508/497/513 498/473/502
f 507/598/512 498/473/502 495/449/499
f 499/524/503 508/497/513 515/523/520
f 499/524/503 515/523/520 509/544/514
f 511/601/516 501/591/506 510/599/515
f 511/601/516 510/599/515 117/605/521
f 502/593/507 511/601/516 516/606/522
f 502/593/507 516/606/522 512/602/517
f 512/602/517 517/607/523 513/603/518
f 512/602/517 513/603/518 503/594/508
f 504/604/509 513/608/518 515/523/520
f 504/604/509 515/523/520 514/496/519
f 508/497/513 507/598/512 514/496/519
f 508/497/513 514/496/519 515/523/520
f 513/608/518 517/609/523 509/544/514
f 513/608/518 509/544/514 515/523/520
f 517/609/523 98/77/62 139/75/70
f 517/609/523 139/75/70 509/544/514
f 511/601/516 117/605/521 518/610/524
f 511/601/516 518/610/524 516/606/522
f 516/606/522 98/611/62 517/607/523
f 516/606/522 517/607/523 512/602/517
f 518/610/524 99/612/63 98/611/62
f 518/610/524 98/611/62 516/606/522
f 122/101/64 121/100/64 95/613/64
f 122/101/64 95/613/64 97/614/64
f 149/615/64 510/616/64 144/617/64
f 149/615/64 144/617/64 143/618/64
f 518/619/64 148/620/65 100/621/64
f 518/619/64 100/621/64 99/622/65
f 117/96/64 131/110/65 148/620/65
f 117/96/64 148/620/65 518/619/64
f 109/88/64 107/86/66 138/623/66
f 109/88/64 138/623/66 136/624/64
f 118/97/64 117/96/64 510/616/64
f 118/97/64 510/616/64 149/615/64
f 382/625/65 123/102/65 429/626/65
f 382/625/65 429/626/65 405/627/65
f 103/82/64 105/84/64 65/628/64
f 103/82/64 65/628/64 67/629/64
f 126/105/64 519/630/64 382/625/65
f 126/105/64 382/625/65 124/103/65
f 125/104/65 124/103/65 147/631/65
f 125/104/65 147/631/65 146/632/65
f 128/107/64 129/108/64 80/633/64
f 128/107/64 80/633/64 79/634/65
f 128/107/64 403/635/64 519/630/64
f 128/107/64 519/630/64 126/105/64
f 135/114/64 403/635/64 427/636/65
f 135/114/64 427/636/65 452/637/64
f 382/625/65 519/630/64 119/98/64
f 382/625/65 119/98/64 123/102/65
f 119/98/64 519/630/64 403/635/64
f 119/98/64 403/635/64 135/114/64
